<mxfile host="Electron" modified="2024-05-10T16:31:46.930Z" agent="Mozilla/5.0 (X11; Linux x86_64) AppleWebKit/537.36 (KHTML, like Gecko) draw.io/24.2.5 Chrome/122.0.6261.156 Electron/29.3.0 Safari/537.36" etag="jcgqucdGS5cmpiwCoavU" version="24.2.5" type="device">
  <diagram name="Page-1" id="4Ylcxh_aXTkbXbBuXBTT">
    <mxGraphModel dx="1475" dy="889" grid="1" gridSize="10" guides="1" tooltips="1" connect="1" arrows="1" fold="1" page="1" pageScale="1" pageWidth="850" pageHeight="1100" math="1" shadow="0">
      <root>
        <mxCell id="0" />
        <mxCell id="1" parent="0" />
        <mxCell id="kngK2mcy-JUIhY7rvR9X-8" value="" style="rounded=0;whiteSpace=wrap;html=1;fillColor=none;strokeColor=#EA6B66;" parent="1" vertex="1">
          <mxGeometry x="200" y="260" width="840" height="440" as="geometry" />
        </mxCell>
        <mxCell id="RU4nFyIQnDvzXy_cDaga-1" value="`置換_0`" style="rounded=0;whiteSpace=wrap;html=1;fillColor=none;strokeColor=#6c8ebf;" parent="1" vertex="1">
          <mxGeometry x="239.22" y="300" width="50.78" height="380" as="geometry" />
        </mxCell>
        <mxCell id="3y3G5SFOzN9zngdh48nE-9" value="" style="ellipse;whiteSpace=wrap;html=1;aspect=fixed;" parent="1" vertex="1">
          <mxGeometry x="1070" y="315" width="20" height="20" as="geometry" />
        </mxCell>
        <mxCell id="3y3G5SFOzN9zngdh48nE-10" value="" style="ellipse;whiteSpace=wrap;html=1;aspect=fixed;" parent="1" vertex="1">
          <mxGeometry x="1070" y="355" width="20" height="20" as="geometry" />
        </mxCell>
        <mxCell id="3y3G5SFOzN9zngdh48nE-11" value="" style="ellipse;whiteSpace=wrap;html=1;aspect=fixed;" parent="1" vertex="1">
          <mxGeometry x="1070" y="395" width="20" height="20" as="geometry" />
        </mxCell>
        <mxCell id="3y3G5SFOzN9zngdh48nE-12" value="" style="ellipse;whiteSpace=wrap;html=1;aspect=fixed;" parent="1" vertex="1">
          <mxGeometry x="1070" y="435" width="20" height="20" as="geometry" />
        </mxCell>
        <mxCell id="3y3G5SFOzN9zngdh48nE-13" value="`X_0`" style="text;html=1;align=center;verticalAlign=middle;whiteSpace=wrap;rounded=0;fontSize=16;" parent="1" vertex="1">
          <mxGeometry x="1080" y="310" width="60" height="30" as="geometry" />
        </mxCell>
        <mxCell id="3y3G5SFOzN9zngdh48nE-14" value="`X_1`" style="text;html=1;align=center;verticalAlign=middle;whiteSpace=wrap;rounded=0;fontSize=16;" parent="1" vertex="1">
          <mxGeometry x="1080" y="350" width="60" height="30" as="geometry" />
        </mxCell>
        <mxCell id="3y3G5SFOzN9zngdh48nE-15" value="`X_2`" style="text;html=1;align=center;verticalAlign=middle;whiteSpace=wrap;rounded=0;fontSize=16;" parent="1" vertex="1">
          <mxGeometry x="1080" y="390" width="60" height="30" as="geometry" />
        </mxCell>
        <mxCell id="3y3G5SFOzN9zngdh48nE-16" value="`X_3`" style="text;html=1;align=center;verticalAlign=middle;whiteSpace=wrap;rounded=0;fontSize=16;" parent="1" vertex="1">
          <mxGeometry x="1080" y="430" width="60" height="30" as="geometry" />
        </mxCell>
        <mxCell id="3y3G5SFOzN9zngdh48nE-21" value="" style="endArrow=none;html=1;rounded=0;exitX=1;exitY=0.5;exitDx=0;exitDy=0;entryX=0;entryY=0.5;entryDx=0;entryDy=0;" parent="1" source="kngK2mcy-JUIhY7rvR9X-84" target="3y3G5SFOzN9zngdh48nE-9" edge="1">
          <mxGeometry width="50" height="50" relative="1" as="geometry">
            <mxPoint x="490" y="555" as="sourcePoint" />
            <mxPoint x="540" y="505" as="targetPoint" />
          </mxGeometry>
        </mxCell>
        <mxCell id="3y3G5SFOzN9zngdh48nE-22" value="" style="endArrow=none;html=1;rounded=0;exitX=1;exitY=0.5;exitDx=0;exitDy=0;entryX=0;entryY=0.5;entryDx=0;entryDy=0;" parent="1" source="kngK2mcy-JUIhY7rvR9X-85" target="3y3G5SFOzN9zngdh48nE-10" edge="1">
          <mxGeometry width="50" height="50" relative="1" as="geometry">
            <mxPoint x="526" y="364.5" as="sourcePoint" />
            <mxPoint x="946" y="364.5" as="targetPoint" />
          </mxGeometry>
        </mxCell>
        <mxCell id="3y3G5SFOzN9zngdh48nE-23" value="" style="endArrow=none;html=1;rounded=0;exitX=1;exitY=0.5;exitDx=0;exitDy=0;entryX=0;entryY=0.5;entryDx=0;entryDy=0;" parent="1" target="3y3G5SFOzN9zngdh48nE-11" edge="1">
          <mxGeometry width="50" height="50" relative="1" as="geometry">
            <mxPoint x="529.999999999967" y="405" as="sourcePoint" />
            <mxPoint x="946" y="404.5" as="targetPoint" />
          </mxGeometry>
        </mxCell>
        <mxCell id="3y3G5SFOzN9zngdh48nE-24" value="" style="endArrow=none;html=1;rounded=0;exitX=1;exitY=0.5;exitDx=0;exitDy=0;entryX=0;entryY=0.5;entryDx=0;entryDy=0;" parent="1" target="3y3G5SFOzN9zngdh48nE-12" edge="1">
          <mxGeometry width="50" height="50" relative="1" as="geometry">
            <mxPoint x="529.999999999967" y="445" as="sourcePoint" />
            <mxPoint x="946" y="444.5" as="targetPoint" />
          </mxGeometry>
        </mxCell>
        <mxCell id="3y3G5SFOzN9zngdh48nE-29" value="" style="ellipse;whiteSpace=wrap;html=1;aspect=fixed;fillColor=#000000;" parent="1" vertex="1">
          <mxGeometry x="825" y="439" width="11" height="11" as="geometry" />
        </mxCell>
        <mxCell id="3y3G5SFOzN9zngdh48nE-28" value="" style="ellipse;whiteSpace=wrap;html=1;aspect=fixed;fillColor=#000000;" parent="1" vertex="1">
          <mxGeometry x="825" y="399" width="11" height="11" as="geometry" />
        </mxCell>
        <mxCell id="3y3G5SFOzN9zngdh48nE-25" value="" style="ellipse;whiteSpace=wrap;html=1;aspect=fixed;fillColor=#000000;" parent="1" vertex="1">
          <mxGeometry x="825" y="359" width="11" height="11" as="geometry" />
        </mxCell>
        <mxCell id="3y3G5SFOzN9zngdh48nE-35" value="" style="ellipse;whiteSpace=wrap;html=1;aspect=fixed;fillColor=#dae8fc;strokeColor=#6c8ebf;" parent="1" vertex="1">
          <mxGeometry x="825" y="319" width="11" height="11" as="geometry" />
        </mxCell>
        <mxCell id="3y3G5SFOzN9zngdh48nE-36" value="" style="ellipse;whiteSpace=wrap;html=1;aspect=fixed;fillColor=#000000;" parent="1" vertex="1">
          <mxGeometry x="1005" y="439" width="11" height="11" as="geometry" />
        </mxCell>
        <mxCell id="3y3G5SFOzN9zngdh48nE-37" value="" style="ellipse;whiteSpace=wrap;html=1;aspect=fixed;fillColor=#000000;" parent="1" vertex="1">
          <mxGeometry x="1005" y="399" width="11" height="11" as="geometry" />
        </mxCell>
        <mxCell id="3y3G5SFOzN9zngdh48nE-38" value="" style="ellipse;whiteSpace=wrap;html=1;aspect=fixed;fillColor=#000000;" parent="1" vertex="1">
          <mxGeometry x="1005" y="359" width="11" height="11" as="geometry" />
        </mxCell>
        <mxCell id="3y3G5SFOzN9zngdh48nE-39" value="" style="ellipse;whiteSpace=wrap;html=1;aspect=fixed;fillColor=#000000;strokeColor=none;" parent="1" vertex="1">
          <mxGeometry x="1005" y="319" width="11" height="11" as="geometry" />
        </mxCell>
        <mxCell id="3y3G5SFOzN9zngdh48nE-1" value="" style="rounded=0;whiteSpace=wrap;html=1;fillColor=none;strokeColor=#EA6B66;" parent="1" vertex="1">
          <mxGeometry x="330" y="275" width="390" height="200" as="geometry" />
        </mxCell>
        <mxCell id="3y3G5SFOzN9zngdh48nE-44" value="" style="ellipse;whiteSpace=wrap;html=1;aspect=fixed;" parent="1" vertex="1">
          <mxGeometry x="1070" y="525" width="20" height="20" as="geometry" />
        </mxCell>
        <mxCell id="3y3G5SFOzN9zngdh48nE-45" value="" style="ellipse;whiteSpace=wrap;html=1;aspect=fixed;" parent="1" vertex="1">
          <mxGeometry x="1070" y="565" width="20" height="20" as="geometry" />
        </mxCell>
        <mxCell id="3y3G5SFOzN9zngdh48nE-46" value="" style="ellipse;whiteSpace=wrap;html=1;aspect=fixed;" parent="1" vertex="1">
          <mxGeometry x="1070" y="605" width="20" height="20" as="geometry" />
        </mxCell>
        <mxCell id="3y3G5SFOzN9zngdh48nE-47" value="" style="ellipse;whiteSpace=wrap;html=1;aspect=fixed;" parent="1" vertex="1">
          <mxGeometry x="1070" y="645" width="20" height="20" as="geometry" />
        </mxCell>
        <mxCell id="3y3G5SFOzN9zngdh48nE-48" value="`X_4`" style="text;html=1;align=center;verticalAlign=middle;whiteSpace=wrap;rounded=0;fontSize=16;" parent="1" vertex="1">
          <mxGeometry x="1080" y="520" width="60" height="30" as="geometry" />
        </mxCell>
        <mxCell id="3y3G5SFOzN9zngdh48nE-49" value="`X_5`" style="text;html=1;align=center;verticalAlign=middle;whiteSpace=wrap;rounded=0;fontSize=16;" parent="1" vertex="1">
          <mxGeometry x="1080" y="560" width="60" height="30" as="geometry" />
        </mxCell>
        <mxCell id="3y3G5SFOzN9zngdh48nE-50" value="`X_6`" style="text;html=1;align=center;verticalAlign=middle;whiteSpace=wrap;rounded=0;fontSize=16;" parent="1" vertex="1">
          <mxGeometry x="1080" y="600" width="60" height="30" as="geometry" />
        </mxCell>
        <mxCell id="3y3G5SFOzN9zngdh48nE-51" value="`X_7`" style="text;html=1;align=center;verticalAlign=middle;whiteSpace=wrap;rounded=0;fontSize=16;" parent="1" vertex="1">
          <mxGeometry x="1080" y="640" width="60" height="30" as="geometry" />
        </mxCell>
        <mxCell id="3y3G5SFOzN9zngdh48nE-61" value="" style="ellipse;whiteSpace=wrap;html=1;aspect=fixed;fillColor=#000000;" parent="1" vertex="1">
          <mxGeometry x="825" y="649" width="11" height="11" as="geometry" />
        </mxCell>
        <mxCell id="3y3G5SFOzN9zngdh48nE-63" value="" style="ellipse;whiteSpace=wrap;html=1;aspect=fixed;fillColor=#000000;" parent="1" vertex="1">
          <mxGeometry x="825" y="609" width="11" height="11" as="geometry" />
        </mxCell>
        <mxCell id="3y3G5SFOzN9zngdh48nE-65" value="" style="ellipse;whiteSpace=wrap;html=1;aspect=fixed;fillColor=#000000;" parent="1" vertex="1">
          <mxGeometry x="825" y="569" width="11" height="11" as="geometry" />
        </mxCell>
        <mxCell id="3y3G5SFOzN9zngdh48nE-66" value="" style="ellipse;whiteSpace=wrap;html=1;aspect=fixed;fillColor=#000000;strokeColor=none;" parent="1" vertex="1">
          <mxGeometry x="825" y="529" width="11" height="11" as="geometry" />
        </mxCell>
        <mxCell id="3y3G5SFOzN9zngdh48nE-67" value="" style="ellipse;whiteSpace=wrap;html=1;aspect=fixed;fillColor=#000000;" parent="1" vertex="1">
          <mxGeometry x="1005" y="649" width="11" height="11" as="geometry" />
        </mxCell>
        <mxCell id="3y3G5SFOzN9zngdh48nE-68" value="" style="ellipse;whiteSpace=wrap;html=1;aspect=fixed;fillColor=#000000;" parent="1" vertex="1">
          <mxGeometry x="1005" y="609" width="11" height="11" as="geometry" />
        </mxCell>
        <mxCell id="3y3G5SFOzN9zngdh48nE-69" value="" style="ellipse;whiteSpace=wrap;html=1;aspect=fixed;fillColor=#000000;" parent="1" vertex="1">
          <mxGeometry x="1005" y="569" width="11" height="11" as="geometry" />
        </mxCell>
        <mxCell id="3y3G5SFOzN9zngdh48nE-70" value="" style="ellipse;whiteSpace=wrap;html=1;aspect=fixed;fillColor=#000000;strokeColor=none;" parent="1" vertex="1">
          <mxGeometry x="1005" y="529" width="11" height="11" as="geometry" />
        </mxCell>
        <mxCell id="3y3G5SFOzN9zngdh48nE-75" value="" style="endArrow=none;html=1;rounded=0;entryX=0;entryY=1;entryDx=0;entryDy=0;" parent="1" target="3y3G5SFOzN9zngdh48nE-38" edge="1">
          <mxGeometry width="50" height="50" relative="1" as="geometry">
            <mxPoint x="830" y="575" as="sourcePoint" />
            <mxPoint x="1011.9300000000001" y="374.93" as="targetPoint" />
          </mxGeometry>
        </mxCell>
        <mxCell id="3y3G5SFOzN9zngdh48nE-76" value="" style="endArrow=none;html=1;rounded=0;exitX=1;exitY=0;exitDx=0;exitDy=0;" parent="1" source="3y3G5SFOzN9zngdh48nE-63" edge="1">
          <mxGeometry width="50" height="50" relative="1" as="geometry">
            <mxPoint x="846" y="621" as="sourcePoint" />
            <mxPoint x="1010" y="405" as="targetPoint" />
          </mxGeometry>
        </mxCell>
        <mxCell id="3y3G5SFOzN9zngdh48nE-77" value="" style="endArrow=none;html=1;rounded=0;exitX=1;exitY=0;exitDx=0;exitDy=0;entryX=0;entryY=1;entryDx=0;entryDy=0;" parent="1" source="3y3G5SFOzN9zngdh48nE-61" target="3y3G5SFOzN9zngdh48nE-36" edge="1">
          <mxGeometry width="50" height="50" relative="1" as="geometry">
            <mxPoint x="846" y="661" as="sourcePoint" />
            <mxPoint x="1012" y="455" as="targetPoint" />
          </mxGeometry>
        </mxCell>
        <mxCell id="3y3G5SFOzN9zngdh48nE-78" value="" style="endArrow=none;html=1;rounded=0;exitX=0;exitY=0;exitDx=0;exitDy=0;entryX=1;entryY=1;entryDx=0;entryDy=0;fillColor=#e1d5e7;strokeColor=default;" parent="1" source="3y3G5SFOzN9zngdh48nE-70" target="3y3G5SFOzN9zngdh48nE-35" edge="1">
          <mxGeometry width="50" height="50" relative="1" as="geometry">
            <mxPoint x="886" y="535" as="sourcePoint" />
            <mxPoint x="846" y="325" as="targetPoint" />
          </mxGeometry>
        </mxCell>
        <mxCell id="3y3G5SFOzN9zngdh48nE-79" value="" style="endArrow=none;html=1;rounded=0;exitX=0;exitY=0;exitDx=0;exitDy=0;entryX=1;entryY=1;entryDx=0;entryDy=0;" parent="1" target="3y3G5SFOzN9zngdh48nE-25" edge="1">
          <mxGeometry width="50" height="50" relative="1" as="geometry">
            <mxPoint x="1010" y="578" as="sourcePoint" />
            <mxPoint x="844" y="372" as="targetPoint" />
          </mxGeometry>
        </mxCell>
        <mxCell id="3y3G5SFOzN9zngdh48nE-80" value="" style="endArrow=none;html=1;rounded=0;exitX=0;exitY=0;exitDx=0;exitDy=0;entryX=1;entryY=1;entryDx=0;entryDy=0;" parent="1" target="3y3G5SFOzN9zngdh48nE-28" edge="1">
          <mxGeometry width="50" height="50" relative="1" as="geometry">
            <mxPoint x="1012" y="615" as="sourcePoint" />
            <mxPoint x="846" y="409" as="targetPoint" />
          </mxGeometry>
        </mxCell>
        <mxCell id="3y3G5SFOzN9zngdh48nE-81" value="" style="endArrow=none;html=1;rounded=0;exitX=0;exitY=0;exitDx=0;exitDy=0;entryX=1;entryY=0;entryDx=0;entryDy=0;" parent="1" target="3y3G5SFOzN9zngdh48nE-29" edge="1">
          <mxGeometry width="50" height="50" relative="1" as="geometry">
            <mxPoint x="1009" y="658" as="sourcePoint" />
            <mxPoint x="843" y="452" as="targetPoint" />
          </mxGeometry>
        </mxCell>
        <mxCell id="3y3G5SFOzN9zngdh48nE-82" value="`W_8^0`" style="text;html=1;align=center;verticalAlign=middle;whiteSpace=wrap;rounded=0;fontSize=16;rotation=0;" parent="1" vertex="1">
          <mxGeometry x="780" y="535" width="60" height="30" as="geometry" />
        </mxCell>
        <mxCell id="3y3G5SFOzN9zngdh48nE-83" value="`W_8^1`" style="text;html=1;align=center;verticalAlign=middle;whiteSpace=wrap;rounded=0;fontSize=16;" parent="1" vertex="1">
          <mxGeometry x="780" y="575" width="60" height="30" as="geometry" />
        </mxCell>
        <mxCell id="3y3G5SFOzN9zngdh48nE-84" value="`W_8^2`" style="text;html=1;align=center;verticalAlign=middle;whiteSpace=wrap;rounded=0;fontSize=16;" parent="1" vertex="1">
          <mxGeometry x="780" y="615" width="60" height="30" as="geometry" />
        </mxCell>
        <mxCell id="3y3G5SFOzN9zngdh48nE-85" value="`W_8^3`" style="text;html=1;align=center;verticalAlign=middle;whiteSpace=wrap;rounded=0;fontSize=16;" parent="1" vertex="1">
          <mxGeometry x="780" y="655" width="60" height="30" as="geometry" />
        </mxCell>
        <mxCell id="kngK2mcy-JUIhY7rvR9X-18" value="" style="ellipse;whiteSpace=wrap;html=1;aspect=fixed;" parent="1" vertex="1">
          <mxGeometry x="140" y="310" width="20" height="20" as="geometry" />
        </mxCell>
        <mxCell id="kngK2mcy-JUIhY7rvR9X-19" value="" style="ellipse;whiteSpace=wrap;html=1;aspect=fixed;" parent="1" vertex="1">
          <mxGeometry x="140" y="365" width="20" height="20" as="geometry" />
        </mxCell>
        <mxCell id="kngK2mcy-JUIhY7rvR9X-20" value="" style="ellipse;whiteSpace=wrap;html=1;aspect=fixed;" parent="1" vertex="1">
          <mxGeometry x="140" y="415" width="20" height="20" as="geometry" />
        </mxCell>
        <mxCell id="kngK2mcy-JUIhY7rvR9X-21" value="" style="ellipse;whiteSpace=wrap;html=1;aspect=fixed;" parent="1" vertex="1">
          <mxGeometry x="140" y="460" width="20" height="20" as="geometry" />
        </mxCell>
        <mxCell id="kngK2mcy-JUIhY7rvR9X-22" value="`x_0`" style="text;html=1;align=center;verticalAlign=middle;whiteSpace=wrap;rounded=0;fontSize=16;" parent="1" vertex="1">
          <mxGeometry x="90" y="305" width="60" height="30" as="geometry" />
        </mxCell>
        <mxCell id="kngK2mcy-JUIhY7rvR9X-23" value="&lt;sup style=&quot;font-size: 17px;&quot;&gt;`x_1`&lt;/sup&gt;" style="text;html=1;align=center;verticalAlign=middle;whiteSpace=wrap;rounded=0;fontSize=17;" parent="1" vertex="1">
          <mxGeometry x="90" y="360" width="60" height="30" as="geometry" />
        </mxCell>
        <mxCell id="kngK2mcy-JUIhY7rvR9X-24" value="`x_2`" style="text;html=1;align=center;verticalAlign=middle;whiteSpace=wrap;rounded=0;fontSize=16;" parent="1" vertex="1">
          <mxGeometry x="90" y="410" width="60" height="30" as="geometry" />
        </mxCell>
        <mxCell id="kngK2mcy-JUIhY7rvR9X-25" value="`x_3`" style="text;html=1;align=center;verticalAlign=middle;whiteSpace=wrap;rounded=0;fontSize=16;" parent="1" vertex="1">
          <mxGeometry x="90" y="455" width="60" height="30" as="geometry" />
        </mxCell>
        <mxCell id="kngK2mcy-JUIhY7rvR9X-26" value="" style="ellipse;whiteSpace=wrap;html=1;aspect=fixed;" parent="1" vertex="1">
          <mxGeometry x="140" y="511" width="20" height="20" as="geometry" />
        </mxCell>
        <mxCell id="kngK2mcy-JUIhY7rvR9X-27" value="" style="ellipse;whiteSpace=wrap;html=1;aspect=fixed;" parent="1" vertex="1">
          <mxGeometry x="140" y="555" width="20" height="20" as="geometry" />
        </mxCell>
        <mxCell id="kngK2mcy-JUIhY7rvR9X-28" value="" style="ellipse;whiteSpace=wrap;html=1;aspect=fixed;" parent="1" vertex="1">
          <mxGeometry x="140" y="605" width="20" height="20" as="geometry" />
        </mxCell>
        <mxCell id="kngK2mcy-JUIhY7rvR9X-29" value="" style="ellipse;whiteSpace=wrap;html=1;aspect=fixed;" parent="1" vertex="1">
          <mxGeometry x="140" y="650" width="20" height="20" as="geometry" />
        </mxCell>
        <mxCell id="kngK2mcy-JUIhY7rvR9X-30" value="`x_4`" style="text;html=1;align=center;verticalAlign=middle;whiteSpace=wrap;rounded=0;fontSize=16;" parent="1" vertex="1">
          <mxGeometry x="90" y="506" width="60" height="30" as="geometry" />
        </mxCell>
        <mxCell id="kngK2mcy-JUIhY7rvR9X-31" value="`x_5`" style="text;html=1;align=center;verticalAlign=middle;whiteSpace=wrap;rounded=0;fontSize=16;" parent="1" vertex="1">
          <mxGeometry x="90" y="550" width="60" height="30" as="geometry" />
        </mxCell>
        <mxCell id="kngK2mcy-JUIhY7rvR9X-32" value="`x_6`" style="text;html=1;align=center;verticalAlign=middle;whiteSpace=wrap;rounded=0;fontSize=16;" parent="1" vertex="1">
          <mxGeometry x="90" y="600" width="60" height="30" as="geometry" />
        </mxCell>
        <mxCell id="kngK2mcy-JUIhY7rvR9X-33" value="`x_7`" style="text;html=1;align=center;verticalAlign=middle;whiteSpace=wrap;rounded=0;fontSize=16;" parent="1" vertex="1">
          <mxGeometry x="90" y="645" width="60" height="30" as="geometry" />
        </mxCell>
        <mxCell id="kngK2mcy-JUIhY7rvR9X-35" value="" style="endArrow=none;html=1;rounded=0;entryX=0;entryY=0.5;entryDx=0;entryDy=0;" parent="1" target="3y3G5SFOzN9zngdh48nE-2" edge="1">
          <mxGeometry width="50" height="50" relative="1" as="geometry">
            <mxPoint x="160" y="320" as="sourcePoint" />
            <mxPoint x="230" y="320" as="targetPoint" />
          </mxGeometry>
        </mxCell>
        <mxCell id="3y3G5SFOzN9zngdh48nE-2" value="" style="ellipse;whiteSpace=wrap;html=1;aspect=fixed;fillColor=#dae8fc;strokeColor=#6c8ebf;" parent="1" vertex="1">
          <mxGeometry x="219.22" y="310" width="20" height="20" as="geometry" />
        </mxCell>
        <mxCell id="3y3G5SFOzN9zngdh48nE-3" value="" style="ellipse;whiteSpace=wrap;html=1;aspect=fixed;" parent="1" vertex="1">
          <mxGeometry x="219.22" y="365" width="20" height="20" as="geometry" />
        </mxCell>
        <mxCell id="3y3G5SFOzN9zngdh48nE-4" value="" style="ellipse;whiteSpace=wrap;html=1;aspect=fixed;fillColor=#dae8fc;strokeColor=#6c8ebf;" parent="1" vertex="1">
          <mxGeometry x="219.22" y="415" width="20" height="20" as="geometry" />
        </mxCell>
        <mxCell id="3y3G5SFOzN9zngdh48nE-40" value="" style="ellipse;whiteSpace=wrap;html=1;aspect=fixed;fillColor=#dae8fc;strokeColor=#6c8ebf;" parent="1" vertex="1">
          <mxGeometry x="219.22" y="510" width="20" height="20" as="geometry" />
        </mxCell>
        <mxCell id="3y3G5SFOzN9zngdh48nE-41" value="" style="ellipse;whiteSpace=wrap;html=1;aspect=fixed;" parent="1" vertex="1">
          <mxGeometry x="219.22" y="555" width="20" height="20" as="geometry" />
        </mxCell>
        <mxCell id="3y3G5SFOzN9zngdh48nE-42" value="" style="ellipse;whiteSpace=wrap;html=1;aspect=fixed;fillColor=#dae8fc;strokeColor=#6c8ebf;" parent="1" vertex="1">
          <mxGeometry x="219.22" y="605" width="20" height="20" as="geometry" />
        </mxCell>
        <mxCell id="3y3G5SFOzN9zngdh48nE-43" value="" style="ellipse;whiteSpace=wrap;html=1;aspect=fixed;" parent="1" vertex="1">
          <mxGeometry x="219.22" y="650" width="20" height="20" as="geometry" />
        </mxCell>
        <mxCell id="kngK2mcy-JUIhY7rvR9X-39" value="" style="endArrow=none;html=1;rounded=0;" parent="1" edge="1">
          <mxGeometry width="50" height="50" relative="1" as="geometry">
            <mxPoint x="160" y="375" as="sourcePoint" />
            <mxPoint x="220" y="375" as="targetPoint" />
          </mxGeometry>
        </mxCell>
        <mxCell id="kngK2mcy-JUIhY7rvR9X-42" value="" style="endArrow=none;html=1;rounded=0;entryX=0;entryY=0.5;entryDx=0;entryDy=0;" parent="1" target="3y3G5SFOzN9zngdh48nE-40" edge="1">
          <mxGeometry width="50" height="50" relative="1" as="geometry">
            <mxPoint x="160" y="520" as="sourcePoint" />
            <mxPoint x="230" y="520" as="targetPoint" />
          </mxGeometry>
        </mxCell>
        <mxCell id="kngK2mcy-JUIhY7rvR9X-43" value="" style="endArrow=none;html=1;rounded=0;entryX=0;entryY=0.5;entryDx=0;entryDy=0;exitX=1;exitY=0.5;exitDx=0;exitDy=0;" parent="1" source="kngK2mcy-JUIhY7rvR9X-27" target="3y3G5SFOzN9zngdh48nE-41" edge="1">
          <mxGeometry width="50" height="50" relative="1" as="geometry">
            <mxPoint x="160" y="564" as="sourcePoint" />
            <mxPoint x="230" y="564" as="targetPoint" />
          </mxGeometry>
        </mxCell>
        <mxCell id="kngK2mcy-JUIhY7rvR9X-44" value="" style="endArrow=none;html=1;rounded=0;entryX=0;entryY=0.5;entryDx=0;entryDy=0;exitX=1;exitY=0.5;exitDx=0;exitDy=0;" parent="1" source="kngK2mcy-JUIhY7rvR9X-28" target="3y3G5SFOzN9zngdh48nE-42" edge="1">
          <mxGeometry width="50" height="50" relative="1" as="geometry">
            <mxPoint x="160" y="614.5" as="sourcePoint" />
            <mxPoint x="230" y="614.5" as="targetPoint" />
          </mxGeometry>
        </mxCell>
        <mxCell id="kngK2mcy-JUIhY7rvR9X-45" value="" style="endArrow=none;html=1;rounded=0;entryX=0;entryY=0.5;entryDx=0;entryDy=0;" parent="1" target="3y3G5SFOzN9zngdh48nE-43" edge="1">
          <mxGeometry width="50" height="50" relative="1" as="geometry">
            <mxPoint x="160" y="660" as="sourcePoint" />
            <mxPoint x="200" y="660" as="targetPoint" />
          </mxGeometry>
        </mxCell>
        <mxCell id="kngK2mcy-JUIhY7rvR9X-48" value="" style="endArrow=none;html=1;rounded=0;entryX=0;entryY=0.5;entryDx=0;entryDy=0;exitX=1;exitY=0.5;exitDx=0;exitDy=0;exitPerimeter=0;" parent="1" source="kngK2mcy-JUIhY7rvR9X-20" target="3y3G5SFOzN9zngdh48nE-4" edge="1">
          <mxGeometry width="50" height="50" relative="1" as="geometry">
            <mxPoint x="160" y="420" as="sourcePoint" />
            <mxPoint x="290" y="581.76" as="targetPoint" />
          </mxGeometry>
        </mxCell>
        <mxCell id="kngK2mcy-JUIhY7rvR9X-61" value="" style="ellipse;whiteSpace=wrap;html=1;aspect=fixed;fillColor=#000000;strokeColor=none;" parent="1" vertex="1">
          <mxGeometry x="825" y="319" width="11" height="11" as="geometry" />
        </mxCell>
        <mxCell id="kngK2mcy-JUIhY7rvR9X-62" value="" style="endArrow=none;html=1;rounded=0;entryX=0;entryY=0.5;entryDx=0;entryDy=0;fillColor=#e1d5e7;strokeColor=default;" parent="1" target="3y3G5SFOzN9zngdh48nE-39" edge="1">
          <mxGeometry width="50" height="50" relative="1" as="geometry">
            <mxPoint x="830" y="535" as="sourcePoint" />
            <mxPoint x="1009" y="332" as="targetPoint" />
          </mxGeometry>
        </mxCell>
        <mxCell id="kngK2mcy-JUIhY7rvR9X-70" value="8 点 DFT" style="text;html=1;align=center;verticalAlign=middle;whiteSpace=wrap;rounded=0;fontSize=16;" parent="1" vertex="1">
          <mxGeometry x="585" y="230" width="150" height="30" as="geometry" />
        </mxCell>
        <mxCell id="kngK2mcy-JUIhY7rvR9X-72" value="" style="ellipse;whiteSpace=wrap;html=1;aspect=fixed;fillColor=#dae8fc;strokeColor=#6c8ebf;" parent="1" vertex="1">
          <mxGeometry x="290" y="315" width="20" height="20" as="geometry" />
        </mxCell>
        <mxCell id="kngK2mcy-JUIhY7rvR9X-73" value="" style="ellipse;whiteSpace=wrap;html=1;aspect=fixed;fillColor=#dae8fc;strokeColor=#6c8ebf;" parent="1" vertex="1">
          <mxGeometry x="290" y="355" width="20" height="20" as="geometry" />
        </mxCell>
        <mxCell id="kngK2mcy-JUIhY7rvR9X-74" value="`x_4`" style="text;html=1;align=center;verticalAlign=middle;whiteSpace=wrap;rounded=0;fontSize=16;" parent="1" vertex="1">
          <mxGeometry x="270" y="372.5" width="60" height="30" as="geometry" />
        </mxCell>
        <mxCell id="kngK2mcy-JUIhY7rvR9X-75" value="`x_0`" style="text;html=1;align=center;verticalAlign=middle;whiteSpace=wrap;rounded=0;fontSize=16;" parent="1" vertex="1">
          <mxGeometry x="270" y="292.5" width="60" height="30" as="geometry" />
        </mxCell>
        <mxCell id="kngK2mcy-JUIhY7rvR9X-77" value="" style="ellipse;whiteSpace=wrap;html=1;aspect=fixed;fillColor=#dae8fc;strokeColor=#6c8ebf;" parent="1" vertex="1">
          <mxGeometry x="290" y="395" width="20" height="20" as="geometry" />
        </mxCell>
        <mxCell id="kngK2mcy-JUIhY7rvR9X-78" value="" style="ellipse;whiteSpace=wrap;html=1;aspect=fixed;fillColor=#dae8fc;strokeColor=#6c8ebf;" parent="1" vertex="1">
          <mxGeometry x="290" y="435" width="20" height="20" as="geometry" />
        </mxCell>
        <mxCell id="kngK2mcy-JUIhY7rvR9X-80" value="`x_2`" style="text;html=1;align=center;verticalAlign=middle;whiteSpace=wrap;rounded=0;fontSize=16;" parent="1" vertex="1">
          <mxGeometry x="270" y="332.5" width="60" height="30" as="geometry" />
        </mxCell>
        <mxCell id="kngK2mcy-JUIhY7rvR9X-95" value="" style="endArrow=none;html=1;rounded=0;" parent="1" target="3y3G5SFOzN9zngdh48nE-5" edge="1">
          <mxGeometry width="50" height="50" relative="1" as="geometry">
            <mxPoint x="160" y="469.5" as="sourcePoint" />
            <mxPoint x="230" y="469.5" as="targetPoint" />
          </mxGeometry>
        </mxCell>
        <mxCell id="3y3G5SFOzN9zngdh48nE-5" value="" style="ellipse;whiteSpace=wrap;html=1;aspect=fixed;" parent="1" vertex="1">
          <mxGeometry x="219.22" y="460" width="20" height="20" as="geometry" />
        </mxCell>
        <mxCell id="kngK2mcy-JUIhY7rvR9X-101" value="`x_6`" style="text;html=1;align=center;verticalAlign=middle;whiteSpace=wrap;rounded=0;fontSize=16;" parent="1" vertex="1">
          <mxGeometry x="270" y="407.5" width="60" height="30" as="geometry" />
        </mxCell>
        <mxCell id="kngK2mcy-JUIhY7rvR9X-106" value="" style="rounded=0;whiteSpace=wrap;html=1;fillColor=none;strokeColor=#EA6B66;" parent="1" vertex="1">
          <mxGeometry x="440" y="305" width="120" height="80" as="geometry" />
        </mxCell>
        <mxCell id="kngK2mcy-JUIhY7rvR9X-84" value="" style="ellipse;whiteSpace=wrap;html=1;aspect=fixed;" parent="1" vertex="1">
          <mxGeometry x="573.75" y="315" width="20" height="20" as="geometry" />
        </mxCell>
        <mxCell id="kngK2mcy-JUIhY7rvR9X-85" value="" style="ellipse;whiteSpace=wrap;html=1;aspect=fixed;" parent="1" vertex="1">
          <mxGeometry x="573.75" y="355" width="20" height="20" as="geometry" />
        </mxCell>
        <mxCell id="kngK2mcy-JUIhY7rvR9X-107" value="" style="ellipse;whiteSpace=wrap;html=1;aspect=fixed;fillColor=#dae8fc;strokeColor=#6c8ebf;" parent="1" vertex="1">
          <mxGeometry x="400" y="315" width="20" height="20" as="geometry" />
        </mxCell>
        <mxCell id="kngK2mcy-JUIhY7rvR9X-108" value="" style="ellipse;whiteSpace=wrap;html=1;aspect=fixed;fillColor=#dae8fc;strokeColor=#6c8ebf;" parent="1" vertex="1">
          <mxGeometry x="400" y="355" width="20" height="20" as="geometry" />
        </mxCell>
        <mxCell id="kngK2mcy-JUIhY7rvR9X-109" value="" style="endArrow=none;html=1;rounded=0;exitX=1;exitY=0.5;exitDx=0;exitDy=0;entryX=0;entryY=0.5;entryDx=0;entryDy=0;" parent="1" source="kngK2mcy-JUIhY7rvR9X-72" target="kngK2mcy-JUIhY7rvR9X-203" edge="1">
          <mxGeometry width="50" height="50" relative="1" as="geometry">
            <mxPoint x="364.78" y="390" as="sourcePoint" />
            <mxPoint x="370" y="325" as="targetPoint" />
            <Array as="points">
              <mxPoint x="360" y="325" />
            </Array>
          </mxGeometry>
        </mxCell>
        <mxCell id="kngK2mcy-JUIhY7rvR9X-122" value="`x_0`" style="text;html=1;align=center;verticalAlign=middle;whiteSpace=wrap;rounded=0;fontSize=16;" parent="1" vertex="1">
          <mxGeometry x="386.25" y="289" width="60" height="30" as="geometry" />
        </mxCell>
        <mxCell id="kngK2mcy-JUIhY7rvR9X-123" value="`x_4`" style="text;html=1;align=center;verticalAlign=middle;whiteSpace=wrap;rounded=0;fontSize=16;" parent="1" vertex="1">
          <mxGeometry x="386.25" y="334" width="60" height="30" as="geometry" />
        </mxCell>
        <mxCell id="kngK2mcy-JUIhY7rvR9X-124" value="`x_2`" style="text;html=1;align=center;verticalAlign=middle;whiteSpace=wrap;rounded=0;fontSize=16;" parent="1" vertex="1">
          <mxGeometry x="386.25" y="370" width="60" height="38" as="geometry" />
        </mxCell>
        <mxCell id="kngK2mcy-JUIhY7rvR9X-125" value="`x_6`" style="text;html=1;align=center;verticalAlign=middle;whiteSpace=wrap;rounded=0;fontSize=16;" parent="1" vertex="1">
          <mxGeometry x="386.25" y="409" width="60" height="30" as="geometry" />
        </mxCell>
        <mxCell id="kngK2mcy-JUIhY7rvR9X-129" value="`x_5`" style="text;html=1;align=center;verticalAlign=middle;whiteSpace=wrap;rounded=0;fontSize=16;" parent="1" vertex="1">
          <mxGeometry x="270" y="577.5" width="60" height="30" as="geometry" />
        </mxCell>
        <mxCell id="kngK2mcy-JUIhY7rvR9X-130" value="`x_1`" style="text;html=1;align=center;verticalAlign=middle;whiteSpace=wrap;rounded=0;fontSize=16;" parent="1" vertex="1">
          <mxGeometry x="270" y="502.5" width="60" height="30" as="geometry" />
        </mxCell>
        <mxCell id="kngK2mcy-JUIhY7rvR9X-134" value="`x_3`" style="text;html=1;align=center;verticalAlign=middle;whiteSpace=wrap;rounded=0;fontSize=16;" parent="1" vertex="1">
          <mxGeometry x="270" y="537.5" width="60" height="30" as="geometry" />
        </mxCell>
        <mxCell id="kngK2mcy-JUIhY7rvR9X-136" value="`x_7`" style="text;html=1;align=center;verticalAlign=middle;whiteSpace=wrap;rounded=0;fontSize=16;" parent="1" vertex="1">
          <mxGeometry x="270" y="622.5" width="60" height="25" as="geometry" />
        </mxCell>
        <mxCell id="kngK2mcy-JUIhY7rvR9X-159" value="" style="ellipse;whiteSpace=wrap;html=1;aspect=fixed;" parent="1" vertex="1">
          <mxGeometry x="750" y="315" width="20" height="20" as="geometry" />
        </mxCell>
        <mxCell id="kngK2mcy-JUIhY7rvR9X-160" value="" style="ellipse;whiteSpace=wrap;html=1;aspect=fixed;" parent="1" vertex="1">
          <mxGeometry x="750" y="355" width="20" height="20" as="geometry" />
        </mxCell>
        <mxCell id="kngK2mcy-JUIhY7rvR9X-161" value="" style="ellipse;whiteSpace=wrap;html=1;aspect=fixed;" parent="1" vertex="1">
          <mxGeometry x="750" y="395" width="20" height="20" as="geometry" />
        </mxCell>
        <mxCell id="kngK2mcy-JUIhY7rvR9X-162" value="" style="ellipse;whiteSpace=wrap;html=1;aspect=fixed;" parent="1" vertex="1">
          <mxGeometry x="750" y="435" width="20" height="20" as="geometry" />
        </mxCell>
        <mxCell id="kngK2mcy-JUIhY7rvR9X-167" value="" style="endArrow=none;html=1;rounded=0;exitX=1;exitY=0.5;exitDx=0;exitDy=0;entryX=0;entryY=0.5;entryDx=0;entryDy=0;" parent="1" target="3y3G5SFOzN9zngdh48nE-44" edge="1">
          <mxGeometry width="50" height="50" relative="1" as="geometry">
            <mxPoint x="490" y="534.81" as="sourcePoint" />
            <mxPoint x="946" y="534.81" as="targetPoint" />
          </mxGeometry>
        </mxCell>
        <mxCell id="kngK2mcy-JUIhY7rvR9X-168" value="" style="endArrow=none;html=1;rounded=0;exitX=1;exitY=0.5;exitDx=0;exitDy=0;entryX=0;entryY=0.5;entryDx=0;entryDy=0;" parent="1" target="3y3G5SFOzN9zngdh48nE-45" edge="1">
          <mxGeometry width="50" height="50" relative="1" as="geometry">
            <mxPoint x="490" y="574.81" as="sourcePoint" />
            <mxPoint x="946" y="574" as="targetPoint" />
          </mxGeometry>
        </mxCell>
        <mxCell id="kngK2mcy-JUIhY7rvR9X-169" value="" style="endArrow=none;html=1;rounded=0;exitX=1;exitY=0.5;exitDx=0;exitDy=0;entryX=0;entryY=0.5;entryDx=0;entryDy=0;" parent="1" target="3y3G5SFOzN9zngdh48nE-46" edge="1">
          <mxGeometry width="50" height="50" relative="1" as="geometry">
            <mxPoint x="490" y="614.81" as="sourcePoint" />
            <mxPoint x="946" y="614.31" as="targetPoint" />
          </mxGeometry>
        </mxCell>
        <mxCell id="kngK2mcy-JUIhY7rvR9X-170" value="" style="endArrow=none;html=1;rounded=0;exitX=1;exitY=0.5;exitDx=0;exitDy=0;entryX=0;entryY=0.5;entryDx=0;entryDy=0;" parent="1" target="3y3G5SFOzN9zngdh48nE-47" edge="1">
          <mxGeometry width="50" height="50" relative="1" as="geometry">
            <mxPoint x="490" y="654.81" as="sourcePoint" />
            <mxPoint x="946" y="654.31" as="targetPoint" />
          </mxGeometry>
        </mxCell>
        <mxCell id="kngK2mcy-JUIhY7rvR9X-182" value="" style="ellipse;whiteSpace=wrap;html=1;aspect=fixed;fillColor=#000000;strokeColor=none;" parent="1" vertex="1">
          <mxGeometry x="614" y="319" width="11" height="11" as="geometry" />
        </mxCell>
        <mxCell id="kngK2mcy-JUIhY7rvR9X-183" value="" style="ellipse;whiteSpace=wrap;html=1;aspect=fixed;fillColor=#000000;" parent="1" vertex="1">
          <mxGeometry x="614" y="359" width="11" height="11" as="geometry" />
        </mxCell>
        <mxCell id="kngK2mcy-JUIhY7rvR9X-184" value="" style="ellipse;whiteSpace=wrap;html=1;aspect=fixed;fillColor=#000000;strokeColor=none;" parent="1" vertex="1">
          <mxGeometry x="674" y="319" width="11" height="11" as="geometry" />
        </mxCell>
        <mxCell id="kngK2mcy-JUIhY7rvR9X-185" value="" style="ellipse;whiteSpace=wrap;html=1;aspect=fixed;fillColor=#000000;" parent="1" vertex="1">
          <mxGeometry x="674" y="359" width="11" height="11" as="geometry" />
        </mxCell>
        <mxCell id="kngK2mcy-JUIhY7rvR9X-190" value="" style="ellipse;whiteSpace=wrap;html=1;aspect=fixed;fillColor=#000000;strokeColor=none;" parent="1" vertex="1">
          <mxGeometry x="614" y="399" width="11" height="11" as="geometry" />
        </mxCell>
        <mxCell id="kngK2mcy-JUIhY7rvR9X-191" value="" style="ellipse;whiteSpace=wrap;html=1;aspect=fixed;fillColor=#000000;" parent="1" vertex="1">
          <mxGeometry x="614" y="439" width="11" height="11" as="geometry" />
        </mxCell>
        <mxCell id="kngK2mcy-JUIhY7rvR9X-192" value="" style="ellipse;whiteSpace=wrap;html=1;aspect=fixed;fillColor=#000000;" parent="1" vertex="1">
          <mxGeometry x="674" y="439" width="11" height="11" as="geometry" />
        </mxCell>
        <mxCell id="kngK2mcy-JUIhY7rvR9X-193" value="" style="ellipse;whiteSpace=wrap;html=1;aspect=fixed;fillColor=#000000;strokeColor=none;" parent="1" vertex="1">
          <mxGeometry x="674" y="399" width="11" height="11" as="geometry" />
        </mxCell>
        <mxCell id="kngK2mcy-JUIhY7rvR9X-194" value="`-1`" style="text;html=1;align=center;verticalAlign=middle;whiteSpace=wrap;rounded=0;fontSize=16;rotation=0;" parent="1" vertex="1">
          <mxGeometry x="960" y="535" width="60" height="30" as="geometry" />
        </mxCell>
        <mxCell id="kngK2mcy-JUIhY7rvR9X-195" value="`-1`" style="text;html=1;align=center;verticalAlign=middle;whiteSpace=wrap;rounded=0;fontSize=16;" parent="1" vertex="1">
          <mxGeometry x="960" y="575" width="60" height="30" as="geometry" />
        </mxCell>
        <mxCell id="kngK2mcy-JUIhY7rvR9X-196" value="`-1`" style="text;html=1;align=center;verticalAlign=middle;whiteSpace=wrap;rounded=0;fontSize=16;" parent="1" vertex="1">
          <mxGeometry x="960" y="615" width="60" height="30" as="geometry" />
        </mxCell>
        <mxCell id="kngK2mcy-JUIhY7rvR9X-197" value="`-1`" style="text;html=1;align=center;verticalAlign=middle;whiteSpace=wrap;rounded=0;fontSize=16;" parent="1" vertex="1">
          <mxGeometry x="960" y="655" width="60" height="30" as="geometry" />
        </mxCell>
        <mxCell id="kngK2mcy-JUIhY7rvR9X-163" value="" style="ellipse;whiteSpace=wrap;html=1;aspect=fixed;" parent="1" vertex="1">
          <mxGeometry x="750" y="525" width="20" height="20" as="geometry" />
        </mxCell>
        <mxCell id="kngK2mcy-JUIhY7rvR9X-164" value="" style="ellipse;whiteSpace=wrap;html=1;aspect=fixed;" parent="1" vertex="1">
          <mxGeometry x="750" y="565" width="20" height="20" as="geometry" />
        </mxCell>
        <mxCell id="kngK2mcy-JUIhY7rvR9X-165" value="" style="ellipse;whiteSpace=wrap;html=1;aspect=fixed;" parent="1" vertex="1">
          <mxGeometry x="750" y="605" width="20" height="20" as="geometry" />
        </mxCell>
        <mxCell id="kngK2mcy-JUIhY7rvR9X-166" value="" style="ellipse;whiteSpace=wrap;html=1;aspect=fixed;" parent="1" vertex="1">
          <mxGeometry x="750" y="645" width="20" height="20" as="geometry" />
        </mxCell>
        <mxCell id="kngK2mcy-JUIhY7rvR9X-202" value="" style="endArrow=none;html=1;rounded=0;exitX=1;exitY=0.5;exitDx=0;exitDy=0;" parent="1" source="kngK2mcy-JUIhY7rvR9X-73" edge="1">
          <mxGeometry width="50" height="50" relative="1" as="geometry">
            <mxPoint x="320" y="365" as="sourcePoint" />
            <mxPoint x="360" y="365" as="targetPoint" />
            <Array as="points" />
          </mxGeometry>
        </mxCell>
        <mxCell id="kngK2mcy-JUIhY7rvR9X-203" value="" style="ellipse;whiteSpace=wrap;html=1;aspect=fixed;fillColor=#dae8fc;strokeColor=#6c8ebf;" parent="1" vertex="1">
          <mxGeometry x="340" y="315" width="20" height="20" as="geometry" />
        </mxCell>
        <mxCell id="kngK2mcy-JUIhY7rvR9X-204" value="" style="ellipse;whiteSpace=wrap;html=1;aspect=fixed;" parent="1" vertex="1">
          <mxGeometry x="340" y="355" width="20" height="20" as="geometry" />
        </mxCell>
        <mxCell id="kngK2mcy-JUIhY7rvR9X-205" value="" style="endArrow=none;html=1;rounded=0;exitX=1;exitY=0.5;exitDx=0;exitDy=0;entryX=0;entryY=0.5;entryDx=0;entryDy=0;" parent="1" target="kngK2mcy-JUIhY7rvR9X-209" edge="1">
          <mxGeometry width="50" height="50" relative="1" as="geometry">
            <mxPoint x="310" y="405" as="sourcePoint" />
            <mxPoint x="370" y="405" as="targetPoint" />
            <Array as="points">
              <mxPoint x="360" y="405" />
            </Array>
          </mxGeometry>
        </mxCell>
        <mxCell id="kngK2mcy-JUIhY7rvR9X-207" value="" style="endArrow=none;html=1;rounded=0;exitX=1;exitY=1;exitDx=0;exitDy=0;" parent="1" edge="1">
          <mxGeometry width="50" height="50" relative="1" as="geometry">
            <mxPoint x="310" y="445" as="sourcePoint" />
            <mxPoint x="360" y="445" as="targetPoint" />
            <Array as="points" />
          </mxGeometry>
        </mxCell>
        <mxCell id="kngK2mcy-JUIhY7rvR9X-209" value="" style="ellipse;whiteSpace=wrap;html=1;aspect=fixed;fillColor=#dae8fc;strokeColor=#6c8ebf;" parent="1" vertex="1">
          <mxGeometry x="340" y="395" width="20" height="20" as="geometry" />
        </mxCell>
        <mxCell id="kngK2mcy-JUIhY7rvR9X-206" value="" style="ellipse;whiteSpace=wrap;html=1;aspect=fixed;" parent="1" vertex="1">
          <mxGeometry x="340" y="435" width="20" height="20" as="geometry" />
        </mxCell>
        <mxCell id="kngK2mcy-JUIhY7rvR9X-216" value="" style="endArrow=none;html=1;rounded=0;exitX=1;exitY=0.5;exitDx=0;exitDy=0;entryX=0;entryY=0.5;entryDx=0;entryDy=0;" parent="1" source="kngK2mcy-JUIhY7rvR9X-107" target="kngK2mcy-JUIhY7rvR9X-84" edge="1">
          <mxGeometry width="50" height="50" relative="1" as="geometry">
            <mxPoint x="425" y="324.71" as="sourcePoint" />
            <mxPoint x="450" y="325" as="targetPoint" />
            <Array as="points" />
          </mxGeometry>
        </mxCell>
        <mxCell id="kngK2mcy-JUIhY7rvR9X-217" value="" style="endArrow=none;html=1;rounded=0;entryX=0;entryY=0.5;entryDx=0;entryDy=0;" parent="1" target="kngK2mcy-JUIhY7rvR9X-85" edge="1">
          <mxGeometry width="50" height="50" relative="1" as="geometry">
            <mxPoint x="420" y="365" as="sourcePoint" />
            <mxPoint x="450" y="365.29" as="targetPoint" />
            <Array as="points" />
          </mxGeometry>
        </mxCell>
        <mxCell id="kngK2mcy-JUIhY7rvR9X-220" value="" style="endArrow=none;html=1;rounded=0;exitX=0;exitY=0;exitDx=0;exitDy=0;entryX=1;entryY=1;entryDx=0;entryDy=0;fillColor=#e1d5e7;strokeColor=default;" parent="1" source="kngK2mcy-JUIhY7rvR9X-193" target="kngK2mcy-JUIhY7rvR9X-182" edge="1">
          <mxGeometry width="50" height="50" relative="1" as="geometry">
            <mxPoint x="850.61" y="560.39" as="sourcePoint" />
            <mxPoint x="677.61" y="357.39" as="targetPoint" />
          </mxGeometry>
        </mxCell>
        <mxCell id="kngK2mcy-JUIhY7rvR9X-222" value="" style="endArrow=none;html=1;rounded=0;exitX=0;exitY=0;exitDx=0;exitDy=0;fillColor=#e1d5e7;strokeColor=default;entryX=1;entryY=1;entryDx=0;entryDy=0;" parent="1" source="kngK2mcy-JUIhY7rvR9X-192" target="kngK2mcy-JUIhY7rvR9X-183" edge="1">
          <mxGeometry width="50" height="50" relative="1" as="geometry">
            <mxPoint x="674.39" y="439.39" as="sourcePoint" />
            <mxPoint x="630" y="375" as="targetPoint" />
          </mxGeometry>
        </mxCell>
        <mxCell id="kngK2mcy-JUIhY7rvR9X-225" value="" style="endArrow=none;html=1;rounded=0;exitX=1;exitY=0.5;exitDx=0;exitDy=0;entryX=0;entryY=0.5;entryDx=0;entryDy=0;" parent="1" edge="1">
          <mxGeometry width="50" height="50" relative="1" as="geometry">
            <mxPoint x="488.75" y="325" as="sourcePoint" />
            <mxPoint x="538.75" y="365" as="targetPoint" />
          </mxGeometry>
        </mxCell>
        <mxCell id="kngK2mcy-JUIhY7rvR9X-226" value="" style="endArrow=none;html=1;rounded=0;exitX=1;exitY=0.5;exitDx=0;exitDy=0;entryX=0;entryY=0.5;entryDx=0;entryDy=0;" parent="1" edge="1">
          <mxGeometry width="50" height="50" relative="1" as="geometry">
            <mxPoint x="488.75" y="365" as="sourcePoint" />
            <mxPoint x="538.75" y="325" as="targetPoint" />
          </mxGeometry>
        </mxCell>
        <mxCell id="kngK2mcy-JUIhY7rvR9X-229" value="" style="endArrow=none;html=1;rounded=0;exitX=0;exitY=0.5;exitDx=0;exitDy=0;entryX=1;entryY=0.5;entryDx=0;entryDy=0;fillColor=#e1d5e7;strokeColor=default;" parent="1" source="kngK2mcy-JUIhY7rvR9X-184" target="kngK2mcy-JUIhY7rvR9X-190" edge="1">
          <mxGeometry width="50" height="50" relative="1" as="geometry">
            <mxPoint x="706" y="502.39" as="sourcePoint" />
            <mxPoint x="653" y="429.39" as="targetPoint" />
          </mxGeometry>
        </mxCell>
        <mxCell id="kngK2mcy-JUIhY7rvR9X-230" value="" style="endArrow=none;html=1;rounded=0;exitX=0;exitY=0.5;exitDx=0;exitDy=0;entryX=1;entryY=0.5;entryDx=0;entryDy=0;fillColor=#e1d5e7;strokeColor=default;" parent="1" source="kngK2mcy-JUIhY7rvR9X-185" target="kngK2mcy-JUIhY7rvR9X-191" edge="1">
          <mxGeometry width="50" height="50" relative="1" as="geometry">
            <mxPoint x="674" y="380.5" as="sourcePoint" />
            <mxPoint x="625" y="460.5" as="targetPoint" />
          </mxGeometry>
        </mxCell>
        <mxCell id="kngK2mcy-JUIhY7rvR9X-233" value="" style="ellipse;whiteSpace=wrap;html=1;aspect=fixed;fillColor=#000000;" parent="1" vertex="1">
          <mxGeometry x="478.75" y="359.5" width="11" height="11" as="geometry" />
        </mxCell>
        <mxCell id="kngK2mcy-JUIhY7rvR9X-234" value="" style="ellipse;whiteSpace=wrap;html=1;aspect=fixed;fillColor=#000000;strokeColor=none;" parent="1" vertex="1">
          <mxGeometry x="478.75" y="319.5" width="11" height="11" as="geometry" />
        </mxCell>
        <mxCell id="kngK2mcy-JUIhY7rvR9X-235" value="" style="ellipse;whiteSpace=wrap;html=1;aspect=fixed;fillColor=#000000;strokeColor=none;" parent="1" vertex="1">
          <mxGeometry x="537.75" y="319.5" width="11" height="11" as="geometry" />
        </mxCell>
        <mxCell id="kngK2mcy-JUIhY7rvR9X-236" value="" style="ellipse;whiteSpace=wrap;html=1;aspect=fixed;fillColor=#000000;" parent="1" vertex="1">
          <mxGeometry x="537.75" y="359.5" width="11" height="11" as="geometry" />
        </mxCell>
        <mxCell id="kngK2mcy-JUIhY7rvR9X-239" value="`W_4^0`" style="text;html=1;align=center;verticalAlign=middle;whiteSpace=wrap;rounded=0;fontSize=12;rotation=0;" parent="1" vertex="1">
          <mxGeometry x="576.26" y="380" width="60" height="30" as="geometry" />
        </mxCell>
        <mxCell id="kngK2mcy-JUIhY7rvR9X-240" value="`W_4^1`" style="text;html=1;align=center;verticalAlign=middle;whiteSpace=wrap;rounded=0;fontSize=12;" parent="1" vertex="1">
          <mxGeometry x="575.63" y="420" width="60" height="30" as="geometry" />
        </mxCell>
        <mxCell id="kngK2mcy-JUIhY7rvR9X-241" value="`-1`" style="text;html=1;align=center;verticalAlign=middle;whiteSpace=wrap;rounded=0;fontSize=12;" parent="1" vertex="1">
          <mxGeometry x="630" y="425" width="60" height="30" as="geometry" />
        </mxCell>
        <mxCell id="kngK2mcy-JUIhY7rvR9X-242" value="`-1`" style="text;html=1;align=center;verticalAlign=middle;whiteSpace=wrap;rounded=0;fontSize=12;" parent="1" vertex="1">
          <mxGeometry x="630" y="385" width="60" height="30" as="geometry" />
        </mxCell>
        <mxCell id="kngK2mcy-JUIhY7rvR9X-244" value="" style="ellipse;whiteSpace=wrap;html=1;aspect=fixed;" parent="1" vertex="1">
          <mxGeometry x="446.25" y="315" width="20" height="20" as="geometry" />
        </mxCell>
        <mxCell id="kngK2mcy-JUIhY7rvR9X-245" value="" style="ellipse;whiteSpace=wrap;html=1;aspect=fixed;" parent="1" vertex="1">
          <mxGeometry x="446.25" y="355" width="20" height="20" as="geometry" />
        </mxCell>
        <mxCell id="kngK2mcy-JUIhY7rvR9X-246" value="" style="rounded=0;whiteSpace=wrap;html=1;fillColor=none;strokeColor=#EA6B66;" parent="1" vertex="1">
          <mxGeometry x="330" y="485" width="390" height="200" as="geometry" />
        </mxCell>
        <mxCell id="kngK2mcy-JUIhY7rvR9X-247" value="" style="rounded=0;whiteSpace=wrap;html=1;fillColor=none;strokeColor=#EA6B66;" parent="1" vertex="1">
          <mxGeometry x="440" y="515" width="120" height="80" as="geometry" />
        </mxCell>
        <mxCell id="kngK2mcy-JUIhY7rvR9X-248" value="" style="ellipse;whiteSpace=wrap;html=1;aspect=fixed;" parent="1" vertex="1">
          <mxGeometry x="573.75" y="525" width="20" height="20" as="geometry" />
        </mxCell>
        <mxCell id="kngK2mcy-JUIhY7rvR9X-249" value="" style="ellipse;whiteSpace=wrap;html=1;aspect=fixed;" parent="1" vertex="1">
          <mxGeometry x="573.75" y="565" width="20" height="20" as="geometry" />
        </mxCell>
        <mxCell id="kngK2mcy-JUIhY7rvR9X-250" value="" style="ellipse;whiteSpace=wrap;html=1;aspect=fixed;fillColor=#dae8fc;strokeColor=#6c8ebf;" parent="1" vertex="1">
          <mxGeometry x="400" y="525" width="20" height="20" as="geometry" />
        </mxCell>
        <mxCell id="kngK2mcy-JUIhY7rvR9X-251" value="" style="ellipse;whiteSpace=wrap;html=1;aspect=fixed;fillColor=#dae8fc;strokeColor=#6c8ebf;" parent="1" vertex="1">
          <mxGeometry x="400" y="565" width="20" height="20" as="geometry" />
        </mxCell>
        <mxCell id="kngK2mcy-JUIhY7rvR9X-252" value="`x_1`" style="text;html=1;align=center;verticalAlign=middle;whiteSpace=wrap;rounded=0;fontSize=16;" parent="1" vertex="1">
          <mxGeometry x="381.25" y="499" width="60" height="30" as="geometry" />
        </mxCell>
        <mxCell id="kngK2mcy-JUIhY7rvR9X-253" value="`x_5`" style="text;html=1;align=center;verticalAlign=middle;whiteSpace=wrap;rounded=0;fontSize=16;" parent="1" vertex="1">
          <mxGeometry x="380" y="540.5" width="60" height="30" as="geometry" />
        </mxCell>
        <mxCell id="kngK2mcy-JUIhY7rvR9X-254" value="`x_3`" style="text;html=1;align=center;verticalAlign=middle;whiteSpace=wrap;rounded=0;fontSize=16;" parent="1" vertex="1">
          <mxGeometry x="380" y="580.5" width="60" height="30" as="geometry" />
        </mxCell>
        <mxCell id="kngK2mcy-JUIhY7rvR9X-255" value="`x_7`" style="text;html=1;align=center;verticalAlign=middle;whiteSpace=wrap;rounded=0;fontSize=16;" parent="1" vertex="1">
          <mxGeometry x="380" y="615.5" width="60" height="30" as="geometry" />
        </mxCell>
        <mxCell id="kngK2mcy-JUIhY7rvR9X-256" value="" style="ellipse;whiteSpace=wrap;html=1;aspect=fixed;fillColor=#000000;strokeColor=none;" parent="1" vertex="1">
          <mxGeometry x="614" y="529" width="11" height="11" as="geometry" />
        </mxCell>
        <mxCell id="kngK2mcy-JUIhY7rvR9X-257" value="" style="ellipse;whiteSpace=wrap;html=1;aspect=fixed;fillColor=#000000;" parent="1" vertex="1">
          <mxGeometry x="614" y="569" width="11" height="11" as="geometry" />
        </mxCell>
        <mxCell id="kngK2mcy-JUIhY7rvR9X-258" value="" style="ellipse;whiteSpace=wrap;html=1;aspect=fixed;fillColor=#000000;strokeColor=none;" parent="1" vertex="1">
          <mxGeometry x="674" y="529" width="11" height="11" as="geometry" />
        </mxCell>
        <mxCell id="kngK2mcy-JUIhY7rvR9X-259" value="" style="ellipse;whiteSpace=wrap;html=1;aspect=fixed;fillColor=#000000;" parent="1" vertex="1">
          <mxGeometry x="674" y="569" width="11" height="11" as="geometry" />
        </mxCell>
        <mxCell id="kngK2mcy-JUIhY7rvR9X-260" value="" style="ellipse;whiteSpace=wrap;html=1;aspect=fixed;fillColor=#000000;strokeColor=none;" parent="1" vertex="1">
          <mxGeometry x="614" y="609" width="11" height="11" as="geometry" />
        </mxCell>
        <mxCell id="kngK2mcy-JUIhY7rvR9X-261" value="" style="ellipse;whiteSpace=wrap;html=1;aspect=fixed;fillColor=#000000;" parent="1" vertex="1">
          <mxGeometry x="614" y="649" width="11" height="11" as="geometry" />
        </mxCell>
        <mxCell id="kngK2mcy-JUIhY7rvR9X-262" value="" style="ellipse;whiteSpace=wrap;html=1;aspect=fixed;fillColor=#000000;" parent="1" vertex="1">
          <mxGeometry x="674" y="649" width="11" height="11" as="geometry" />
        </mxCell>
        <mxCell id="kngK2mcy-JUIhY7rvR9X-263" value="" style="ellipse;whiteSpace=wrap;html=1;aspect=fixed;fillColor=#000000;strokeColor=none;" parent="1" vertex="1">
          <mxGeometry x="674" y="609" width="11" height="11" as="geometry" />
        </mxCell>
        <mxCell id="kngK2mcy-JUIhY7rvR9X-268" value="" style="endArrow=none;html=1;rounded=0;exitX=1;exitY=0.5;exitDx=0;exitDy=0;entryX=0;entryY=0.5;entryDx=0;entryDy=0;" parent="1" source="kngK2mcy-JUIhY7rvR9X-250" target="kngK2mcy-JUIhY7rvR9X-248" edge="1">
          <mxGeometry width="50" height="50" relative="1" as="geometry">
            <mxPoint x="425" y="534.71" as="sourcePoint" />
            <mxPoint x="450" y="535" as="targetPoint" />
            <Array as="points" />
          </mxGeometry>
        </mxCell>
        <mxCell id="kngK2mcy-JUIhY7rvR9X-269" value="" style="endArrow=none;html=1;rounded=0;exitX=1;exitY=0.5;exitDx=0;exitDy=0;entryX=0;entryY=0.5;entryDx=0;entryDy=0;" parent="1" source="kngK2mcy-JUIhY7rvR9X-251" target="kngK2mcy-JUIhY7rvR9X-249" edge="1">
          <mxGeometry width="50" height="50" relative="1" as="geometry">
            <mxPoint x="425" y="575" as="sourcePoint" />
            <mxPoint x="450" y="575.29" as="targetPoint" />
            <Array as="points" />
          </mxGeometry>
        </mxCell>
        <mxCell id="kngK2mcy-JUIhY7rvR9X-270" value="" style="endArrow=none;html=1;rounded=0;exitX=0;exitY=0;exitDx=0;exitDy=0;entryX=1;entryY=1;entryDx=0;entryDy=0;fillColor=#e1d5e7;strokeColor=default;" parent="1" source="kngK2mcy-JUIhY7rvR9X-263" target="kngK2mcy-JUIhY7rvR9X-256" edge="1">
          <mxGeometry width="50" height="50" relative="1" as="geometry">
            <mxPoint x="850.61" y="770.39" as="sourcePoint" />
            <mxPoint x="677.61" y="567.39" as="targetPoint" />
          </mxGeometry>
        </mxCell>
        <mxCell id="kngK2mcy-JUIhY7rvR9X-271" value="" style="endArrow=none;html=1;rounded=0;exitX=0;exitY=0;exitDx=0;exitDy=0;fillColor=#e1d5e7;strokeColor=default;entryX=1;entryY=1;entryDx=0;entryDy=0;" parent="1" source="kngK2mcy-JUIhY7rvR9X-262" target="kngK2mcy-JUIhY7rvR9X-257" edge="1">
          <mxGeometry width="50" height="50" relative="1" as="geometry">
            <mxPoint x="674.39" y="649.39" as="sourcePoint" />
            <mxPoint x="630" y="585" as="targetPoint" />
          </mxGeometry>
        </mxCell>
        <mxCell id="kngK2mcy-JUIhY7rvR9X-272" value="" style="endArrow=none;html=1;rounded=0;exitX=1;exitY=0.5;exitDx=0;exitDy=0;entryX=0;entryY=0.5;entryDx=0;entryDy=0;" parent="1" edge="1">
          <mxGeometry width="50" height="50" relative="1" as="geometry">
            <mxPoint x="488.75" y="535" as="sourcePoint" />
            <mxPoint x="538.75" y="575" as="targetPoint" />
          </mxGeometry>
        </mxCell>
        <mxCell id="kngK2mcy-JUIhY7rvR9X-273" value="" style="endArrow=none;html=1;rounded=0;exitX=1;exitY=0.5;exitDx=0;exitDy=0;entryX=0;entryY=0.5;entryDx=0;entryDy=0;" parent="1" edge="1">
          <mxGeometry width="50" height="50" relative="1" as="geometry">
            <mxPoint x="488.75" y="575" as="sourcePoint" />
            <mxPoint x="538.75" y="535" as="targetPoint" />
          </mxGeometry>
        </mxCell>
        <mxCell id="kngK2mcy-JUIhY7rvR9X-274" value="" style="endArrow=none;html=1;rounded=0;exitX=0;exitY=0.5;exitDx=0;exitDy=0;entryX=1;entryY=0.5;entryDx=0;entryDy=0;fillColor=#e1d5e7;strokeColor=default;" parent="1" source="kngK2mcy-JUIhY7rvR9X-258" target="kngK2mcy-JUIhY7rvR9X-260" edge="1">
          <mxGeometry width="50" height="50" relative="1" as="geometry">
            <mxPoint x="706" y="712.39" as="sourcePoint" />
            <mxPoint x="653" y="639.39" as="targetPoint" />
          </mxGeometry>
        </mxCell>
        <mxCell id="kngK2mcy-JUIhY7rvR9X-275" value="" style="endArrow=none;html=1;rounded=0;exitX=0;exitY=0.5;exitDx=0;exitDy=0;entryX=1;entryY=0.5;entryDx=0;entryDy=0;fillColor=#e1d5e7;strokeColor=default;" parent="1" source="kngK2mcy-JUIhY7rvR9X-259" target="kngK2mcy-JUIhY7rvR9X-261" edge="1">
          <mxGeometry width="50" height="50" relative="1" as="geometry">
            <mxPoint x="674" y="590.5" as="sourcePoint" />
            <mxPoint x="625" y="670.5" as="targetPoint" />
          </mxGeometry>
        </mxCell>
        <mxCell id="kngK2mcy-JUIhY7rvR9X-276" value="" style="ellipse;whiteSpace=wrap;html=1;aspect=fixed;fillColor=#000000;" parent="1" vertex="1">
          <mxGeometry x="478.75" y="569.5" width="11" height="11" as="geometry" />
        </mxCell>
        <mxCell id="kngK2mcy-JUIhY7rvR9X-277" value="" style="ellipse;whiteSpace=wrap;html=1;aspect=fixed;fillColor=#000000;strokeColor=none;" parent="1" vertex="1">
          <mxGeometry x="478.75" y="529.5" width="11" height="11" as="geometry" />
        </mxCell>
        <mxCell id="kngK2mcy-JUIhY7rvR9X-278" value="" style="ellipse;whiteSpace=wrap;html=1;aspect=fixed;fillColor=#000000;strokeColor=none;" parent="1" vertex="1">
          <mxGeometry x="537.75" y="529.5" width="11" height="11" as="geometry" />
        </mxCell>
        <mxCell id="kngK2mcy-JUIhY7rvR9X-279" value="" style="ellipse;whiteSpace=wrap;html=1;aspect=fixed;fillColor=#000000;" parent="1" vertex="1">
          <mxGeometry x="537.75" y="569.5" width="11" height="11" as="geometry" />
        </mxCell>
        <mxCell id="kngK2mcy-JUIhY7rvR9X-280" value="`W_4^0`" style="text;html=1;align=center;verticalAlign=middle;whiteSpace=wrap;rounded=0;fontSize=12;rotation=0;" parent="1" vertex="1">
          <mxGeometry x="576.26" y="590" width="60" height="30" as="geometry" />
        </mxCell>
        <mxCell id="kngK2mcy-JUIhY7rvR9X-281" value="`W_4^1`" style="text;html=1;align=center;verticalAlign=middle;whiteSpace=wrap;rounded=0;fontSize=12;" parent="1" vertex="1">
          <mxGeometry x="576.26" y="630" width="60" height="30" as="geometry" />
        </mxCell>
        <mxCell id="kngK2mcy-JUIhY7rvR9X-282" value="`-1`" style="text;html=1;align=center;verticalAlign=middle;whiteSpace=wrap;rounded=0;fontSize=12;" parent="1" vertex="1">
          <mxGeometry x="630" y="635" width="60" height="30" as="geometry" />
        </mxCell>
        <mxCell id="kngK2mcy-JUIhY7rvR9X-283" value="`-1`" style="text;html=1;align=center;verticalAlign=middle;whiteSpace=wrap;rounded=0;fontSize=12;" parent="1" vertex="1">
          <mxGeometry x="630" y="595" width="60" height="30" as="geometry" />
        </mxCell>
        <mxCell id="kngK2mcy-JUIhY7rvR9X-284" value="" style="ellipse;whiteSpace=wrap;html=1;aspect=fixed;" parent="1" vertex="1">
          <mxGeometry x="446.25" y="525" width="20" height="20" as="geometry" />
        </mxCell>
        <mxCell id="kngK2mcy-JUIhY7rvR9X-285" value="" style="ellipse;whiteSpace=wrap;html=1;aspect=fixed;" parent="1" vertex="1">
          <mxGeometry x="446.25" y="565" width="20" height="20" as="geometry" />
        </mxCell>
        <mxCell id="kngK2mcy-JUIhY7rvR9X-286" value="" style="rounded=0;whiteSpace=wrap;html=1;fillColor=none;strokeColor=#EA6B66;" parent="1" vertex="1">
          <mxGeometry x="440.63" y="385" width="120" height="80" as="geometry" />
        </mxCell>
        <mxCell id="kngK2mcy-JUIhY7rvR9X-287" value="" style="ellipse;whiteSpace=wrap;html=1;aspect=fixed;" parent="1" vertex="1">
          <mxGeometry x="574.38" y="395" width="20" height="20" as="geometry" />
        </mxCell>
        <mxCell id="kngK2mcy-JUIhY7rvR9X-288" value="" style="ellipse;whiteSpace=wrap;html=1;aspect=fixed;" parent="1" vertex="1">
          <mxGeometry x="574.38" y="435" width="20" height="20" as="geometry" />
        </mxCell>
        <mxCell id="kngK2mcy-JUIhY7rvR9X-289" value="" style="ellipse;whiteSpace=wrap;html=1;aspect=fixed;" parent="1" vertex="1">
          <mxGeometry x="400.63" y="395" width="20" height="20" as="geometry" />
        </mxCell>
        <mxCell id="kngK2mcy-JUIhY7rvR9X-290" value="" style="ellipse;whiteSpace=wrap;html=1;aspect=fixed;" parent="1" vertex="1">
          <mxGeometry x="400.63" y="435" width="20" height="20" as="geometry" />
        </mxCell>
        <mxCell id="kngK2mcy-JUIhY7rvR9X-291" value="" style="endArrow=none;html=1;rounded=0;exitX=1;exitY=0.5;exitDx=0;exitDy=0;entryX=0;entryY=0.5;entryDx=0;entryDy=0;" parent="1" source="kngK2mcy-JUIhY7rvR9X-289" target="kngK2mcy-JUIhY7rvR9X-287" edge="1">
          <mxGeometry width="50" height="50" relative="1" as="geometry">
            <mxPoint x="425.63" y="404.71" as="sourcePoint" />
            <mxPoint x="450.63" y="405" as="targetPoint" />
            <Array as="points" />
          </mxGeometry>
        </mxCell>
        <mxCell id="kngK2mcy-JUIhY7rvR9X-292" value="" style="endArrow=none;html=1;rounded=0;exitX=1;exitY=0.5;exitDx=0;exitDy=0;entryX=0;entryY=0.5;entryDx=0;entryDy=0;" parent="1" source="kngK2mcy-JUIhY7rvR9X-290" target="kngK2mcy-JUIhY7rvR9X-288" edge="1">
          <mxGeometry width="50" height="50" relative="1" as="geometry">
            <mxPoint x="425.63" y="445" as="sourcePoint" />
            <mxPoint x="450.63" y="445.29" as="targetPoint" />
            <Array as="points" />
          </mxGeometry>
        </mxCell>
        <mxCell id="kngK2mcy-JUIhY7rvR9X-293" value="" style="endArrow=none;html=1;rounded=0;exitX=1;exitY=0.5;exitDx=0;exitDy=0;entryX=0;entryY=0.5;entryDx=0;entryDy=0;" parent="1" edge="1">
          <mxGeometry width="50" height="50" relative="1" as="geometry">
            <mxPoint x="489.38" y="405" as="sourcePoint" />
            <mxPoint x="539.38" y="445" as="targetPoint" />
          </mxGeometry>
        </mxCell>
        <mxCell id="kngK2mcy-JUIhY7rvR9X-294" value="" style="endArrow=none;html=1;rounded=0;exitX=1;exitY=0.5;exitDx=0;exitDy=0;entryX=0;entryY=0.5;entryDx=0;entryDy=0;" parent="1" edge="1">
          <mxGeometry width="50" height="50" relative="1" as="geometry">
            <mxPoint x="489.38" y="445" as="sourcePoint" />
            <mxPoint x="539.38" y="405" as="targetPoint" />
          </mxGeometry>
        </mxCell>
        <mxCell id="kngK2mcy-JUIhY7rvR9X-295" value="" style="ellipse;whiteSpace=wrap;html=1;aspect=fixed;fillColor=#000000;" parent="1" vertex="1">
          <mxGeometry x="479.38" y="439.5" width="11" height="11" as="geometry" />
        </mxCell>
        <mxCell id="kngK2mcy-JUIhY7rvR9X-296" value="" style="ellipse;whiteSpace=wrap;html=1;aspect=fixed;fillColor=#000000;strokeColor=none;" parent="1" vertex="1">
          <mxGeometry x="479.38" y="399.5" width="11" height="11" as="geometry" />
        </mxCell>
        <mxCell id="kngK2mcy-JUIhY7rvR9X-297" value="" style="ellipse;whiteSpace=wrap;html=1;aspect=fixed;fillColor=#000000;strokeColor=none;" parent="1" vertex="1">
          <mxGeometry x="538.38" y="399.5" width="11" height="11" as="geometry" />
        </mxCell>
        <mxCell id="kngK2mcy-JUIhY7rvR9X-298" value="" style="ellipse;whiteSpace=wrap;html=1;aspect=fixed;fillColor=#000000;" parent="1" vertex="1">
          <mxGeometry x="538.38" y="439.5" width="11" height="11" as="geometry" />
        </mxCell>
        <mxCell id="kngK2mcy-JUIhY7rvR9X-299" value="" style="ellipse;whiteSpace=wrap;html=1;aspect=fixed;" parent="1" vertex="1">
          <mxGeometry x="446.88" y="395" width="20" height="20" as="geometry" />
        </mxCell>
        <mxCell id="kngK2mcy-JUIhY7rvR9X-300" value="" style="ellipse;whiteSpace=wrap;html=1;aspect=fixed;" parent="1" vertex="1">
          <mxGeometry x="446.88" y="435" width="20" height="20" as="geometry" />
        </mxCell>
        <mxCell id="kngK2mcy-JUIhY7rvR9X-302" value="`-1`" style="text;html=1;align=center;verticalAlign=middle;whiteSpace=wrap;rounded=0;fontSize=12;" parent="1" vertex="1">
          <mxGeometry x="500" y="360" width="60" height="30" as="geometry" />
        </mxCell>
        <mxCell id="kngK2mcy-JUIhY7rvR9X-303" value="`W_2^0`" style="text;html=1;align=center;verticalAlign=middle;whiteSpace=wrap;rounded=0;fontSize=12;rotation=0;" parent="1" vertex="1">
          <mxGeometry x="461.26" y="359.5" width="78.74" height="30" as="geometry" />
        </mxCell>
        <mxCell id="kngK2mcy-JUIhY7rvR9X-304" value="`W_2^0`" style="text;html=1;align=center;verticalAlign=middle;whiteSpace=wrap;rounded=0;fontSize=12;rotation=0;" parent="1" vertex="1">
          <mxGeometry x="461.89" y="439" width="78.74" height="30" as="geometry" />
        </mxCell>
        <mxCell id="kngK2mcy-JUIhY7rvR9X-305" value="`-1`" style="text;html=1;align=center;verticalAlign=middle;whiteSpace=wrap;rounded=0;fontSize=12;" parent="1" vertex="1">
          <mxGeometry x="500.63" y="439.5" width="60" height="30" as="geometry" />
        </mxCell>
        <mxCell id="kngK2mcy-JUIhY7rvR9X-306" value="`W_2^0`" style="text;html=1;align=center;verticalAlign=middle;whiteSpace=wrap;rounded=0;fontSize=12;rotation=0;" parent="1" vertex="1">
          <mxGeometry x="461.89" y="569.75" width="78.74" height="30" as="geometry" />
        </mxCell>
        <mxCell id="kngK2mcy-JUIhY7rvR9X-307" value="`-1`" style="text;html=1;align=center;verticalAlign=middle;whiteSpace=wrap;rounded=0;fontSize=12;" parent="1" vertex="1">
          <mxGeometry x="500.63" y="570.25" width="60" height="30" as="geometry" />
        </mxCell>
        <mxCell id="kngK2mcy-JUIhY7rvR9X-309" value="&lt;font style=&quot;font-size: 12px;&quot;&gt;添字の 0 bit 目で 2 分割&lt;/font&gt;" style="text;html=1;align=center;verticalAlign=middle;whiteSpace=wrap;rounded=0;fontSize=16;" parent="1" vertex="1">
          <mxGeometry x="190" y="260" width="150" height="30" as="geometry" />
        </mxCell>
        <mxCell id="kngK2mcy-JUIhY7rvR9X-310" value="&lt;span style=&quot;font-size: 12px;&quot;&gt;添字の 1 bit 目で 2 分割&lt;/span&gt;" style="text;html=1;align=center;verticalAlign=middle;whiteSpace=wrap;rounded=0;fontSize=16;" parent="1" vertex="1">
          <mxGeometry x="323" y="271" width="150" height="30" as="geometry" />
        </mxCell>
        <mxCell id="kngK2mcy-JUIhY7rvR9X-311" value="" style="endArrow=none;html=1;rounded=0;exitX=1;exitY=1;exitDx=0;exitDy=0;" parent="1" edge="1">
          <mxGeometry width="50" height="50" relative="1" as="geometry">
            <mxPoint x="300" y="655" as="sourcePoint" />
            <mxPoint x="350" y="655" as="targetPoint" />
            <Array as="points" />
          </mxGeometry>
        </mxCell>
        <mxCell id="kngK2mcy-JUIhY7rvR9X-312" value="" style="endArrow=none;html=1;rounded=0;exitX=1;exitY=0.5;exitDx=0;exitDy=0;entryX=0;entryY=0.5;entryDx=0;entryDy=0;" parent="1" edge="1">
          <mxGeometry width="50" height="50" relative="1" as="geometry">
            <mxPoint x="300" y="615" as="sourcePoint" />
            <mxPoint x="330" y="615" as="targetPoint" />
            <Array as="points">
              <mxPoint x="350" y="615" />
            </Array>
          </mxGeometry>
        </mxCell>
        <mxCell id="kngK2mcy-JUIhY7rvR9X-313" value="" style="endArrow=none;html=1;rounded=0;exitX=1;exitY=0.5;exitDx=0;exitDy=0;" parent="1" edge="1">
          <mxGeometry width="50" height="50" relative="1" as="geometry">
            <mxPoint x="300" y="575" as="sourcePoint" />
            <mxPoint x="350" y="575" as="targetPoint" />
            <Array as="points" />
          </mxGeometry>
        </mxCell>
        <mxCell id="kngK2mcy-JUIhY7rvR9X-314" value="" style="endArrow=none;html=1;rounded=0;exitX=1;exitY=0.5;exitDx=0;exitDy=0;entryX=0;entryY=0.5;entryDx=0;entryDy=0;" parent="1" edge="1">
          <mxGeometry width="50" height="50" relative="1" as="geometry">
            <mxPoint x="300" y="535" as="sourcePoint" />
            <mxPoint x="330" y="535" as="targetPoint" />
            <Array as="points">
              <mxPoint x="350" y="535" />
            </Array>
          </mxGeometry>
        </mxCell>
        <mxCell id="kngK2mcy-JUIhY7rvR9X-127" value="" style="ellipse;whiteSpace=wrap;html=1;aspect=fixed;fillColor=#dae8fc;strokeColor=#6c8ebf;" parent="1" vertex="1">
          <mxGeometry x="290" y="525" width="20" height="20" as="geometry" />
        </mxCell>
        <mxCell id="kngK2mcy-JUIhY7rvR9X-128" value="" style="ellipse;whiteSpace=wrap;html=1;aspect=fixed;" parent="1" vertex="1">
          <mxGeometry x="290" y="565" width="20" height="20" as="geometry" />
        </mxCell>
        <mxCell id="kngK2mcy-JUIhY7rvR9X-132" value="" style="ellipse;whiteSpace=wrap;html=1;aspect=fixed;fillColor=#dae8fc;strokeColor=#6c8ebf;" parent="1" vertex="1">
          <mxGeometry x="290" y="605" width="20" height="20" as="geometry" />
        </mxCell>
        <mxCell id="kngK2mcy-JUIhY7rvR9X-133" value="" style="ellipse;whiteSpace=wrap;html=1;aspect=fixed;" parent="1" vertex="1">
          <mxGeometry x="290" y="645" width="20" height="20" as="geometry" />
        </mxCell>
        <mxCell id="kngK2mcy-JUIhY7rvR9X-264" value="" style="ellipse;whiteSpace=wrap;html=1;aspect=fixed;fillColor=#dae8fc;strokeColor=#6c8ebf;" parent="1" vertex="1">
          <mxGeometry x="340" y="525" width="20" height="20" as="geometry" />
        </mxCell>
        <mxCell id="kngK2mcy-JUIhY7rvR9X-265" value="" style="ellipse;whiteSpace=wrap;html=1;aspect=fixed;" parent="1" vertex="1">
          <mxGeometry x="340" y="565" width="20" height="20" as="geometry" />
        </mxCell>
        <mxCell id="kngK2mcy-JUIhY7rvR9X-266" value="" style="ellipse;whiteSpace=wrap;html=1;aspect=fixed;fillColor=#dae8fc;strokeColor=#6c8ebf;" parent="1" vertex="1">
          <mxGeometry x="340" y="605" width="20" height="20" as="geometry" />
        </mxCell>
        <mxCell id="kngK2mcy-JUIhY7rvR9X-267" value="" style="ellipse;whiteSpace=wrap;html=1;aspect=fixed;" parent="1" vertex="1">
          <mxGeometry x="340" y="645" width="20" height="20" as="geometry" />
        </mxCell>
        <mxCell id="kngK2mcy-JUIhY7rvR9X-315" value="&lt;span style=&quot;font-size: 12px;&quot;&gt;添字の 1 bit 目で 2 分割&lt;/span&gt;" style="text;html=1;align=center;verticalAlign=middle;whiteSpace=wrap;rounded=0;fontSize=16;" parent="1" vertex="1">
          <mxGeometry x="321.25" y="481" width="150" height="30" as="geometry" />
        </mxCell>
        <mxCell id="kngK2mcy-JUIhY7rvR9X-316" value="" style="rounded=0;whiteSpace=wrap;html=1;fillColor=none;strokeColor=#EA6B66;" parent="1" vertex="1">
          <mxGeometry x="440" y="595" width="120" height="80" as="geometry" />
        </mxCell>
        <mxCell id="kngK2mcy-JUIhY7rvR9X-317" value="" style="ellipse;whiteSpace=wrap;html=1;aspect=fixed;" parent="1" vertex="1">
          <mxGeometry x="573.75" y="605" width="20" height="20" as="geometry" />
        </mxCell>
        <mxCell id="kngK2mcy-JUIhY7rvR9X-318" value="" style="ellipse;whiteSpace=wrap;html=1;aspect=fixed;" parent="1" vertex="1">
          <mxGeometry x="573.75" y="645" width="20" height="20" as="geometry" />
        </mxCell>
        <mxCell id="kngK2mcy-JUIhY7rvR9X-319" value="" style="ellipse;whiteSpace=wrap;html=1;aspect=fixed;" parent="1" vertex="1">
          <mxGeometry x="400" y="605" width="20" height="20" as="geometry" />
        </mxCell>
        <mxCell id="kngK2mcy-JUIhY7rvR9X-320" value="" style="ellipse;whiteSpace=wrap;html=1;aspect=fixed;" parent="1" vertex="1">
          <mxGeometry x="400" y="645" width="20" height="20" as="geometry" />
        </mxCell>
        <mxCell id="kngK2mcy-JUIhY7rvR9X-321" value="" style="endArrow=none;html=1;rounded=0;exitX=1;exitY=0.5;exitDx=0;exitDy=0;entryX=0;entryY=0.5;entryDx=0;entryDy=0;" parent="1" source="kngK2mcy-JUIhY7rvR9X-319" target="kngK2mcy-JUIhY7rvR9X-317" edge="1">
          <mxGeometry width="50" height="50" relative="1" as="geometry">
            <mxPoint x="425" y="614.71" as="sourcePoint" />
            <mxPoint x="450" y="615" as="targetPoint" />
            <Array as="points" />
          </mxGeometry>
        </mxCell>
        <mxCell id="kngK2mcy-JUIhY7rvR9X-322" value="" style="endArrow=none;html=1;rounded=0;exitX=1;exitY=0.5;exitDx=0;exitDy=0;entryX=0;entryY=0.5;entryDx=0;entryDy=0;" parent="1" source="kngK2mcy-JUIhY7rvR9X-320" target="kngK2mcy-JUIhY7rvR9X-318" edge="1">
          <mxGeometry width="50" height="50" relative="1" as="geometry">
            <mxPoint x="425" y="655" as="sourcePoint" />
            <mxPoint x="450" y="655.29" as="targetPoint" />
            <Array as="points" />
          </mxGeometry>
        </mxCell>
        <mxCell id="kngK2mcy-JUIhY7rvR9X-323" value="" style="endArrow=none;html=1;rounded=0;exitX=1;exitY=0.5;exitDx=0;exitDy=0;entryX=0;entryY=0.5;entryDx=0;entryDy=0;" parent="1" edge="1">
          <mxGeometry width="50" height="50" relative="1" as="geometry">
            <mxPoint x="488.75" y="615" as="sourcePoint" />
            <mxPoint x="538.75" y="655" as="targetPoint" />
          </mxGeometry>
        </mxCell>
        <mxCell id="kngK2mcy-JUIhY7rvR9X-324" value="" style="endArrow=none;html=1;rounded=0;exitX=1;exitY=0.5;exitDx=0;exitDy=0;entryX=0;entryY=0.5;entryDx=0;entryDy=0;" parent="1" edge="1">
          <mxGeometry width="50" height="50" relative="1" as="geometry">
            <mxPoint x="488.75" y="655" as="sourcePoint" />
            <mxPoint x="538.75" y="615" as="targetPoint" />
          </mxGeometry>
        </mxCell>
        <mxCell id="kngK2mcy-JUIhY7rvR9X-325" value="" style="ellipse;whiteSpace=wrap;html=1;aspect=fixed;fillColor=#000000;" parent="1" vertex="1">
          <mxGeometry x="478.75" y="649.5" width="11" height="11" as="geometry" />
        </mxCell>
        <mxCell id="kngK2mcy-JUIhY7rvR9X-326" value="" style="ellipse;whiteSpace=wrap;html=1;aspect=fixed;fillColor=#000000;strokeColor=none;" parent="1" vertex="1">
          <mxGeometry x="478.75" y="609.5" width="11" height="11" as="geometry" />
        </mxCell>
        <mxCell id="kngK2mcy-JUIhY7rvR9X-327" value="" style="ellipse;whiteSpace=wrap;html=1;aspect=fixed;fillColor=#000000;strokeColor=none;" parent="1" vertex="1">
          <mxGeometry x="537.75" y="609.5" width="11" height="11" as="geometry" />
        </mxCell>
        <mxCell id="kngK2mcy-JUIhY7rvR9X-328" value="" style="ellipse;whiteSpace=wrap;html=1;aspect=fixed;fillColor=#000000;" parent="1" vertex="1">
          <mxGeometry x="537.75" y="649.5" width="11" height="11" as="geometry" />
        </mxCell>
        <mxCell id="kngK2mcy-JUIhY7rvR9X-329" value="" style="ellipse;whiteSpace=wrap;html=1;aspect=fixed;" parent="1" vertex="1">
          <mxGeometry x="446.25" y="605" width="20" height="20" as="geometry" />
        </mxCell>
        <mxCell id="kngK2mcy-JUIhY7rvR9X-330" value="" style="ellipse;whiteSpace=wrap;html=1;aspect=fixed;" parent="1" vertex="1">
          <mxGeometry x="446.25" y="645" width="20" height="20" as="geometry" />
        </mxCell>
        <mxCell id="kngK2mcy-JUIhY7rvR9X-331" value="`W_2^0`" style="text;html=1;align=center;verticalAlign=middle;whiteSpace=wrap;rounded=0;fontSize=12;rotation=0;" parent="1" vertex="1">
          <mxGeometry x="461.89" y="649.75" width="78.74" height="30" as="geometry" />
        </mxCell>
        <mxCell id="kngK2mcy-JUIhY7rvR9X-332" value="`-1`" style="text;html=1;align=center;verticalAlign=middle;whiteSpace=wrap;rounded=0;fontSize=12;" parent="1" vertex="1">
          <mxGeometry x="500.63" y="650.25" width="60" height="30" as="geometry" />
        </mxCell>
        <mxCell id="kngK2mcy-JUIhY7rvR9X-333" value="4 点 DFT" style="text;html=1;align=center;verticalAlign=middle;whiteSpace=wrap;rounded=0;fontSize=12;" parent="1" vertex="1">
          <mxGeometry x="441" y="255" width="150" height="30" as="geometry" />
        </mxCell>
        <mxCell id="kngK2mcy-JUIhY7rvR9X-335" value="2 点 DFT" style="text;html=1;align=center;verticalAlign=middle;whiteSpace=wrap;rounded=0;fontSize=12;" parent="1" vertex="1">
          <mxGeometry x="426.26" y="285" width="150" height="30" as="geometry" />
        </mxCell>
        <mxCell id="kngK2mcy-JUIhY7rvR9X-336" value="2 点 DFT" style="text;html=1;align=center;verticalAlign=middle;whiteSpace=wrap;rounded=0;fontSize=12;" parent="1" vertex="1">
          <mxGeometry x="425.63" y="495" width="150" height="30" as="geometry" />
        </mxCell>
        <mxCell id="RU4nFyIQnDvzXy_cDaga-4" value="`x_0`" style="text;html=1;align=center;verticalAlign=middle;whiteSpace=wrap;rounded=0;fontSize=16;" parent="1" vertex="1">
          <mxGeometry x="199.22" y="280.25" width="60" height="30" as="geometry" />
        </mxCell>
        <mxCell id="RU4nFyIQnDvzXy_cDaga-5" value="&lt;sup style=&quot;font-size: 17px;&quot;&gt;`x_1`&lt;/sup&gt;" style="text;html=1;align=center;verticalAlign=middle;whiteSpace=wrap;rounded=0;fontSize=17;" parent="1" vertex="1">
          <mxGeometry x="199.22" y="335.25" width="60" height="30" as="geometry" />
        </mxCell>
        <mxCell id="RU4nFyIQnDvzXy_cDaga-6" value="`x_2`" style="text;html=1;align=center;verticalAlign=middle;whiteSpace=wrap;rounded=0;fontSize=16;" parent="1" vertex="1">
          <mxGeometry x="199.22" y="385.25" width="60" height="30" as="geometry" />
        </mxCell>
        <mxCell id="RU4nFyIQnDvzXy_cDaga-7" value="`x_3`" style="text;html=1;align=center;verticalAlign=middle;whiteSpace=wrap;rounded=0;fontSize=16;" parent="1" vertex="1">
          <mxGeometry x="199.22" y="430.25" width="60" height="30" as="geometry" />
        </mxCell>
        <mxCell id="RU4nFyIQnDvzXy_cDaga-8" value="`x_4`" style="text;html=1;align=center;verticalAlign=middle;whiteSpace=wrap;rounded=0;fontSize=16;" parent="1" vertex="1">
          <mxGeometry x="199.22" y="481.25" width="60" height="30" as="geometry" />
        </mxCell>
        <mxCell id="RU4nFyIQnDvzXy_cDaga-9" value="`x_5`" style="text;html=1;align=center;verticalAlign=middle;whiteSpace=wrap;rounded=0;fontSize=16;" parent="1" vertex="1">
          <mxGeometry x="199.22" y="525.25" width="60" height="30" as="geometry" />
        </mxCell>
        <mxCell id="RU4nFyIQnDvzXy_cDaga-10" value="`x_6`" style="text;html=1;align=center;verticalAlign=middle;whiteSpace=wrap;rounded=0;fontSize=16;" parent="1" vertex="1">
          <mxGeometry x="199.22" y="575.25" width="60" height="30" as="geometry" />
        </mxCell>
        <mxCell id="RU4nFyIQnDvzXy_cDaga-11" value="`x_7`" style="text;html=1;align=center;verticalAlign=middle;whiteSpace=wrap;rounded=0;fontSize=16;" parent="1" vertex="1">
          <mxGeometry x="199.22" y="624" width="60" height="30" as="geometry" />
        </mxCell>
        <mxCell id="RU4nFyIQnDvzXy_cDaga-12" value="`置換_1`" style="rounded=0;whiteSpace=wrap;html=1;fillColor=none;strokeColor=#6c8ebf;" parent="1" vertex="1">
          <mxGeometry x="360" y="310.25" width="40" height="149.75" as="geometry" />
        </mxCell>
        <mxCell id="RU4nFyIQnDvzXy_cDaga-13" value="`x_0`" style="text;html=1;align=center;verticalAlign=middle;whiteSpace=wrap;rounded=0;fontSize=16;" parent="1" vertex="1">
          <mxGeometry x="320" y="294.5" width="60" height="30" as="geometry" />
        </mxCell>
        <mxCell id="RU4nFyIQnDvzXy_cDaga-14" value="`x_2`" style="text;html=1;align=center;verticalAlign=middle;whiteSpace=wrap;rounded=0;fontSize=16;" parent="1" vertex="1">
          <mxGeometry x="320" y="334.5" width="60" height="30" as="geometry" />
        </mxCell>
        <mxCell id="RU4nFyIQnDvzXy_cDaga-15" value="`x_4`" style="text;html=1;align=center;verticalAlign=middle;whiteSpace=wrap;rounded=0;fontSize=16;" parent="1" vertex="1">
          <mxGeometry x="320" y="374.5" width="60" height="30" as="geometry" />
        </mxCell>
        <mxCell id="RU4nFyIQnDvzXy_cDaga-16" value="`x_6`" style="text;html=1;align=center;verticalAlign=middle;whiteSpace=wrap;rounded=0;fontSize=16;" parent="1" vertex="1">
          <mxGeometry x="320" y="409.5" width="60" height="30" as="geometry" />
        </mxCell>
        <mxCell id="RU4nFyIQnDvzXy_cDaga-17" value="`x_1`" style="text;html=1;align=center;verticalAlign=middle;whiteSpace=wrap;rounded=0;fontSize=16;" parent="1" vertex="1">
          <mxGeometry x="320" y="504" width="60" height="30" as="geometry" />
        </mxCell>
        <mxCell id="RU4nFyIQnDvzXy_cDaga-18" value="`x_3`" style="text;html=1;align=center;verticalAlign=middle;whiteSpace=wrap;rounded=0;fontSize=16;" parent="1" vertex="1">
          <mxGeometry x="320" y="539" width="60" height="30" as="geometry" />
        </mxCell>
        <mxCell id="RU4nFyIQnDvzXy_cDaga-19" value="`x_7`" style="text;html=1;align=center;verticalAlign=middle;whiteSpace=wrap;rounded=0;fontSize=16;" parent="1" vertex="1">
          <mxGeometry x="320" y="624" width="60" height="25" as="geometry" />
        </mxCell>
        <mxCell id="RU4nFyIQnDvzXy_cDaga-20" value="`x_5`" style="text;html=1;align=center;verticalAlign=middle;whiteSpace=wrap;rounded=0;fontSize=16;" parent="1" vertex="1">
          <mxGeometry x="320" y="579" width="60" height="30" as="geometry" />
        </mxCell>
        <mxCell id="RU4nFyIQnDvzXy_cDaga-21" value="`置換_1`" style="rounded=0;whiteSpace=wrap;html=1;fillColor=none;strokeColor=#6c8ebf;" parent="1" vertex="1">
          <mxGeometry x="360.63" y="525" width="40" height="149.75" as="geometry" />
        </mxCell>
        <mxCell id="FfmzREOtBI9RGNiBncDE-1" value="" style="rounded=0;whiteSpace=wrap;html=1;fillColor=none;strokeColor=#9673a6;" vertex="1" parent="1">
          <mxGeometry x="810" y="304" width="220" height="386" as="geometry" />
        </mxCell>
        <mxCell id="FfmzREOtBI9RGNiBncDE-2" value="&lt;font style=&quot;font-size: 12px;&quot;&gt;バタフライ演算&lt;/font&gt;" style="text;html=1;align=center;verticalAlign=middle;whiteSpace=wrap;rounded=0;fontSize=16;" vertex="1" parent="1">
          <mxGeometry x="840" y="280" width="150" height="30" as="geometry" />
        </mxCell>
        <mxCell id="FfmzREOtBI9RGNiBncDE-3" value="" style="rounded=0;whiteSpace=wrap;html=1;fillColor=none;strokeColor=#9673a6;" vertex="1" parent="1">
          <mxGeometry x="610" y="312.63" width="80" height="145" as="geometry" />
        </mxCell>
        <mxCell id="FfmzREOtBI9RGNiBncDE-4" value="&lt;font style=&quot;font-size: 12px;&quot;&gt;バタフライ演算&lt;/font&gt;" style="text;html=1;align=center;verticalAlign=middle;whiteSpace=wrap;rounded=0;fontSize=16;" vertex="1" parent="1">
          <mxGeometry x="576.26" y="289" width="150" height="30" as="geometry" />
        </mxCell>
        <mxCell id="FfmzREOtBI9RGNiBncDE-5" value="" style="rounded=0;whiteSpace=wrap;html=1;fillColor=none;strokeColor=#9673a6;" vertex="1" parent="1">
          <mxGeometry x="610" y="521.5" width="80" height="145" as="geometry" />
        </mxCell>
        <mxCell id="FfmzREOtBI9RGNiBncDE-6" value="`-1`" style="text;html=1;align=center;verticalAlign=middle;whiteSpace=wrap;rounded=0;fontSize=12;" vertex="1" parent="1">
          <mxGeometry x="630" y="635" width="60" height="30" as="geometry" />
        </mxCell>
        <mxCell id="FfmzREOtBI9RGNiBncDE-7" value="&lt;font style=&quot;font-size: 12px;&quot;&gt;バタフライ演算&lt;/font&gt;" style="text;html=1;align=center;verticalAlign=middle;whiteSpace=wrap;rounded=0;fontSize=16;" vertex="1" parent="1">
          <mxGeometry x="575" y="499" width="150" height="30" as="geometry" />
        </mxCell>
      </root>
    </mxGraphModel>
  </diagram>
</mxfile>
